<svg xmlns="http://www.w3.org/2000/svg" xmlns:xlink="http://www.w3.org/1999/xlink" width="82.31" height="44.343" viewBox="0 0 82.31 44.343">
  <defs>
    <clipPath id="clip-path">
      <rect id="Rectangle_52" data-name="Rectangle 52" width="82.31" height="44.343" fill="none"/>
    </clipPath>
  </defs>
  <g id="Group_56" data-name="Group 56" transform="translate(0 0)">
    <path id="Path_266" data-name="Path 266" d="M5.968,41.261l2.007-2.381H6.052v-.653H8.974V38.8L6.981,41.178H9.009v.652H5.968Z" transform="translate(-1.157 -7.408)" fill="#7e7885"/>
    <g id="Group_55" data-name="Group 55">
      <path id="Path_264" data-name="Path 264" d="M53.192,0,44.773,8.42l-.006-.007-3.16,3.173,1.366,1.364L44.7,11.228l2.448,2.448-2.765,2.764L35.345,7.406l2.814-2.812,2.365,2.454L38.8,8.775l1.365,1.365,3.167-3.166L38.169,1.81l-9.861,9.862,5.168,5.156,3.194-3.12-1.376-1.424L33.51,14.068,31.1,11.656,33.862,8.89l9.033,9.033L40.13,20.689l-2.449-2.448,1.764-1.764L38.08,15.112l-3.165,3.167,5.177,5.177,9.791-9.792,1.81-1.766-1.377-1.423-1.743,1.744L46.16,9.806l2.725-2.725,9.033,9.033L55.152,18.88,52.7,16.431l1.764-1.764L53.1,13.3l-3.166,3.165,5.177,5.179,9.86-9.86L59.789,6.6,56.629,9.776l1.365,1.364,1.723-1.724,2.45,2.45L59.4,14.631,50.367,5.6l2.814-2.814,2.366,2.456L53.82,6.965,55.184,8.33l3.167-3.166Z" transform="translate(-5.486 0)" fill="#7e7885"/>
      <path id="Path_265" data-name="Path 265" d="M2.3,37.575l.679,2.035H1.624Zm-.486-.992L0,41.513H.986L1.4,40.283h1.81l.409,1.229H4.6l-1.812-4.93Z" transform="translate(0 -7.09)" fill="#7e7885"/>
      <g id="Group_25" data-name="Group 25" transform="translate(0 0)">
        <g id="Group_24" data-name="Group 24" transform="translate(0 0)" clip-path="url(#clip-path)">
          <path id="Path_267" data-name="Path 267" d="M12.035,41.887a1.946,1.946,0,0,1-1.025-.257,1.771,1.771,0,0,1-.656-.684,1.976,1.976,0,0,1-.235-.921c0-.046,0-.1.006-.155s.01-.1.014-.141h2.812a.951.951,0,0,0-.16-.478.925.925,0,0,0-.347-.3.976.976,0,0,0-.451-.106,1.083,1.083,0,0,0-.531.135.716.716,0,0,0-.337.357l-.792-.222a1.555,1.555,0,0,1,.376-.493,1.792,1.792,0,0,1,.576-.337,2.146,2.146,0,0,1,.736-.121,2.059,2.059,0,0,1,.8.148,1.79,1.79,0,0,1,.6.4,1.816,1.816,0,0,1,.382.59,1.9,1.9,0,0,1,.135.715,1.942,1.942,0,0,1-.229.934,1.766,1.766,0,0,1-.656.683,1.932,1.932,0,0,1-1.017.257m.006-.673A.891.891,0,0,0,12.5,41.1a.948.948,0,0,0,.327-.318,1.028,1.028,0,0,0,.149-.476H11.084a.988.988,0,0,0,.156.476.971.971,0,0,0,.344.318.931.931,0,0,0,.458.115" transform="translate(-1.961 -7.396)" fill="#7e7885"/>
          <path id="Path_268" data-name="Path 268" d="M17.787,38.978a1.712,1.712,0,0,0-.757.163.993.993,0,0,0-.479.469v2.2h-.93v-3.6h.854v.743a1.641,1.641,0,0,1,.493-.591,1.2,1.2,0,0,1,.631-.235h.119a.332.332,0,0,1,.069.006Z" transform="translate(-3.027 -7.389)" fill="#7e7885"/>
          <path id="Path_269" data-name="Path 269" d="M21.023,41.548a1.465,1.465,0,0,1-.743-.188,1.366,1.366,0,0,1-.514-.514v.632h-.813V36.41h.931v2.111a1.44,1.44,0,0,1,.51-.514,1.424,1.424,0,0,1,.739-.188,1.4,1.4,0,0,1,.646.148,1.534,1.534,0,0,1,.5.408,1.914,1.914,0,0,1,.326.6,2.221,2.221,0,0,1,.114.721,1.989,1.989,0,0,1-.128.721,1.906,1.906,0,0,1-.357.594,1.59,1.59,0,0,1-1.215.539m-.257-.792a.96.96,0,0,0,.406-.085,1.033,1.033,0,0,0,.319-.229.98.98,0,0,0,.208-.337,1.128,1.128,0,0,0,.073-.4,1.224,1.224,0,0,0-.121-.542,1.029,1.029,0,0,0-.334-.4.835.835,0,0,0-.5-.15.85.85,0,0,0-.385.092,1.118,1.118,0,0,0-.327.248,1.216,1.216,0,0,0-.225.355v.851a.674.674,0,0,0,.135.246.955.955,0,0,0,.218.187,1.213,1.213,0,0,0,.26.123.874.874,0,0,0,.268.044" transform="translate(-3.673 -7.057)" fill="#7e7885"/>
          <path id="Path_270" data-name="Path 270" d="M24.1,40.755a1,1,0,0,1,.2-.614,1.271,1.271,0,0,1,.551-.408,2.146,2.146,0,0,1,.813-.144,3.158,3.158,0,0,1,.465.035,1.574,1.574,0,0,1,.41.11v-.193a.667.667,0,0,0-.2-.525.884.884,0,0,0-.608-.184,1.58,1.58,0,0,0-.569.1,2.918,2.918,0,0,0-.569.306l-.3-.611a2.969,2.969,0,0,1,.739-.354,2.646,2.646,0,0,1,.795-.119,1.769,1.769,0,0,1,1.212.384,1.383,1.383,0,0,1,.434,1.095V40.78a.316.316,0,0,0,.052.2.246.246,0,0,0,.17.076v.757l-.226.035a1.357,1.357,0,0,1-.17.014.619.619,0,0,1-.42-.125.528.528,0,0,1-.177-.306l-.021-.187a1.593,1.593,0,0,1-.59.472,1.675,1.675,0,0,1-.722.167,1.408,1.408,0,0,1-.649-.148,1.131,1.131,0,0,1-.451-.4,1.059,1.059,0,0,1-.164-.58m2.264.181a.951.951,0,0,0,.125-.162.3.3,0,0,0,.048-.149v-.359a1.909,1.909,0,0,0-.361-.106,2.008,2.008,0,0,0-.368-.037,1.055,1.055,0,0,0-.593.153.461.461,0,0,0-.233.4.478.478,0,0,0,.077.257.544.544,0,0,0,.222.2.754.754,0,0,0,.347.075,1.132,1.132,0,0,0,.41-.077,1.033,1.033,0,0,0,.327-.193" transform="translate(-4.671 -7.395)" fill="#7e7885"/>
          <path id="Path_271" data-name="Path 271" d="M29.169,42.539q.125.028.232.048a1.024,1.024,0,0,0,.185.021.355.355,0,0,0,.218-.065.658.658,0,0,0,.17-.233,3.126,3.126,0,0,0,.174-.469l-1.437-3.613h.965l.979,2.669.861-2.669H32.4l-1.528,4.331a1.328,1.328,0,0,1-.253.438,1.2,1.2,0,0,1-.423.31,1.357,1.357,0,0,1-.566.114,1.379,1.379,0,0,1-.223-.017,1.809,1.809,0,0,1-.243-.059Z" transform="translate(-5.564 -7.409)" fill="#7e7885"/>
          <path id="Path_272" data-name="Path 272" d="M35.4,41.887a2.06,2.06,0,0,1-.8-.148,1.741,1.741,0,0,1-.6-.412,1.931,1.931,0,0,1-.287-2.238,1.756,1.756,0,0,1,.663-.676,1.961,1.961,0,0,1,1.021-.254,1.911,1.911,0,0,1,1.013.257,1.634,1.634,0,0,1,.633.672l-.909.278a.821.821,0,0,0-.313-.309.875.875,0,0,0-.431-.108.913.913,0,0,0-.483.133.926.926,0,0,0-.343.375,1.22,1.22,0,0,0-.125.562,1.166,1.166,0,0,0,.128.555,1,1,0,0,0,.345.381.853.853,0,0,0,.478.139.885.885,0,0,0,.317-.056.907.907,0,0,0,.266-.152.6.6,0,0,0,.174-.223l.909.278a1.508,1.508,0,0,1-.364.486,1.763,1.763,0,0,1-.564.336,2.034,2.034,0,0,1-.725.122" transform="translate(-6.489 -7.396)" fill="#7e7885"/>
          <path id="Path_273" data-name="Path 273" d="M38.311,40.755a1,1,0,0,1,.2-.614,1.271,1.271,0,0,1,.551-.408,2.146,2.146,0,0,1,.813-.144,3.166,3.166,0,0,1,.465.035,1.573,1.573,0,0,1,.41.11v-.193a.667.667,0,0,0-.2-.525.884.884,0,0,0-.608-.184,1.58,1.58,0,0,0-.569.1,2.918,2.918,0,0,0-.569.306l-.3-.611a2.982,2.982,0,0,1,.739-.354,2.646,2.646,0,0,1,.795-.119,1.769,1.769,0,0,1,1.212.384,1.383,1.383,0,0,1,.434,1.095V40.78a.316.316,0,0,0,.052.2.246.246,0,0,0,.17.076v.757l-.226.035a1.346,1.346,0,0,1-.17.014.619.619,0,0,1-.42-.125.528.528,0,0,1-.177-.306l-.02-.187a1.6,1.6,0,0,1-.591.472,1.675,1.675,0,0,1-.722.167,1.408,1.408,0,0,1-.649-.148,1.131,1.131,0,0,1-.451-.4,1.059,1.059,0,0,1-.164-.58m2.264.181a.951.951,0,0,0,.125-.162.3.3,0,0,0,.048-.149v-.359a1.909,1.909,0,0,0-.361-.106,2.008,2.008,0,0,0-.368-.037,1.055,1.055,0,0,0-.593.153.461.461,0,0,0-.233.4.478.478,0,0,0,.077.257.544.544,0,0,0,.222.2.754.754,0,0,0,.347.075,1.132,1.132,0,0,0,.41-.077,1.033,1.033,0,0,0,.327-.193" transform="translate(-7.425 -7.395)" fill="#7e7885"/>
          <path id="Path_274" data-name="Path 274" d="M46.946,41.818h-.93V39.806a1.038,1.038,0,0,0-.152-.63.506.506,0,0,0-.423-.2.853.853,0,0,0-.379.1,1.167,1.167,0,0,0-.343.26,1.03,1.03,0,0,0-.223.384v2.1h-.93v-3.6h.84v.672a1.361,1.361,0,0,1,.355-.394,1.589,1.589,0,0,1,.5-.247,2.021,2.021,0,0,1,.594-.085,1.147,1.147,0,0,1,.559.12.834.834,0,0,1,.333.322,1.411,1.411,0,0,1,.16.456,2.963,2.963,0,0,1,.045.515Z" transform="translate(-8.443 -7.396)" fill="#7e7885"/>
          <path id="Path_275" data-name="Path 275" d="M50.944,41.512v-4.93h2.18a1.426,1.426,0,0,1,.629.139,1.586,1.586,0,0,1,.5.375,1.732,1.732,0,0,1,.327.528,1.624,1.624,0,0,1,.114.6,1.7,1.7,0,0,1-.108.6,1.5,1.5,0,0,1-.309.5,1.409,1.409,0,0,1-.472.333l1.125,1.854H53.874L52.86,39.859H51.9v1.653Zm.959-2.493h1.2a.5.5,0,0,0,.318-.107.754.754,0,0,0,.223-.289.948.948,0,0,0,.083-.4.846.846,0,0,0-.1-.413.8.8,0,0,0-.247-.281.552.552,0,0,0-.322-.1H51.9Z" transform="translate(-9.873 -7.09)" fill="#7e7885"/>
          <path id="Path_276" data-name="Path 276" d="M58.036,41.887a2.04,2.04,0,0,1-.792-.148,1.78,1.78,0,0,1-.6-.4,1.823,1.823,0,0,1-.385-.591,1.847,1.847,0,0,1-.135-.7,1.932,1.932,0,0,1,.232-.941,1.785,1.785,0,0,1,.667-.684,1.969,1.969,0,0,1,1.024-.257,1.927,1.927,0,0,1,1.021.258,1.752,1.752,0,0,1,.649.68,1.9,1.9,0,0,1,.226.911c0,.055,0,.111-.006.168s-.01.1-.014.141H57.106a1.029,1.029,0,0,0,.163.475.876.876,0,0,0,.347.309,1.007,1.007,0,0,0,.455.1,1.065,1.065,0,0,0,.524-.135.711.711,0,0,0,.336-.357l.8.223a1.514,1.514,0,0,1-.378.493,1.833,1.833,0,0,1-.58.337,2.146,2.146,0,0,1-.736.121m-.951-2.159h1.9a1.051,1.051,0,0,0-.156-.472.908.908,0,0,0-.337-.312.961.961,0,0,0-.465-.112.929.929,0,0,0-.455.112.915.915,0,0,0-.333.312,1.052,1.052,0,0,0-.156.472" transform="translate(-10.876 -7.396)" fill="#7e7885"/>
          <path id="Path_277" data-name="Path 277" d="M62.836,41.887a2.6,2.6,0,0,1-.888-.152,2.022,2.022,0,0,1-.73-.451l.334-.6a2.494,2.494,0,0,0,.642.389,1.656,1.656,0,0,0,.608.125.87.87,0,0,0,.434-.094.3.3,0,0,0,.163-.281.243.243,0,0,0-.09-.2.807.807,0,0,0-.26-.127c-.113-.037-.251-.077-.413-.123a6.47,6.47,0,0,1-.673-.254.983.983,0,0,1-.406-.312.805.805,0,0,1-.135-.483A1.025,1.025,0,0,1,61.6,38.7a1.206,1.206,0,0,1,.514-.4,1.919,1.919,0,0,1,.774-.144,2.2,2.2,0,0,1,.736.122,1.745,1.745,0,0,1,.631.392l-.375.59a2.259,2.259,0,0,0-.527-.316,1.354,1.354,0,0,0-.507-.1,1.034,1.034,0,0,0-.274.035.458.458,0,0,0-.208.112.3.3,0,0,0-.08.223.271.271,0,0,0,.073.2.617.617,0,0,0,.223.127c.1.036.221.077.364.123a6.03,6.03,0,0,1,.739.253,1.168,1.168,0,0,1,.455.318.8.8,0,0,1,.152.516.987.987,0,0,1-.4.834,1.714,1.714,0,0,1-1.063.3" transform="translate(-11.864 -7.396)" fill="#7e7885"/>
          <path id="Path_278" data-name="Path 278" d="M68,41.887a1.444,1.444,0,0,1-.747-.189,1.337,1.337,0,0,1-.5-.511V43.3h-.93V38.214h.812v.625a1.541,1.541,0,0,1,.527-.5,1.446,1.446,0,0,1,.73-.182,1.581,1.581,0,0,1,.676.144,1.644,1.644,0,0,1,.539.4,1.914,1.914,0,0,1,.357.59,1.979,1.979,0,0,1,.129.718,2.161,2.161,0,0,1-.2.947,1.723,1.723,0,0,1-.563.676,1.4,1.4,0,0,1-.822.251m-.313-.792a.846.846,0,0,0,.389-.089.959.959,0,0,0,.3-.242,1.078,1.078,0,0,0,.194-.347,1.265,1.265,0,0,0,.066-.406,1.138,1.138,0,0,0-.073-.415,1.012,1.012,0,0,0-.535-.566.978.978,0,0,0-.4-.081.876.876,0,0,0-.268.044,1.133,1.133,0,0,0-.26.126,1.014,1.014,0,0,0-.219.189.674.674,0,0,0-.135.236v.845a1.315,1.315,0,0,0,.225.36A1.043,1.043,0,0,0,67.3,41a.859.859,0,0,0,.382.092" transform="translate(-12.755 -7.395)" fill="#7e7885"/>
          <path id="Path_279" data-name="Path 279" d="M71.233,40.484V38.228h.93v2.051a1.044,1.044,0,0,0,.153.621.522.522,0,0,0,.451.21.948.948,0,0,0,.357-.072,1.006,1.006,0,0,0,.326-.214,1.226,1.226,0,0,0,.254-.36V38.228h.93v2.565a.32.32,0,0,0,.052.206.249.249,0,0,0,.17.075v.757c-.093.014-.17.024-.233.031a1.464,1.464,0,0,1-.169.01.674.674,0,0,1-.406-.114.447.447,0,0,1-.185-.313l-.021-.289a1.585,1.585,0,0,1-.624.554,1.871,1.871,0,0,1-.84.189,1.034,1.034,0,0,1-.854-.361,1.646,1.646,0,0,1-.292-1.056" transform="translate(-13.805 -7.409)" fill="#7e7885"/>
          <path id="Path_280" data-name="Path 280" d="M78.668,41.548a1.465,1.465,0,0,1-.743-.188,1.366,1.366,0,0,1-.514-.514v.632H76.6V36.41h.931v2.111a1.44,1.44,0,0,1,.51-.514,1.424,1.424,0,0,1,.739-.188,1.4,1.4,0,0,1,.646.148,1.542,1.542,0,0,1,.5.408,1.932,1.932,0,0,1,.327.6,2.243,2.243,0,0,1,.114.721,1.989,1.989,0,0,1-.129.721,1.905,1.905,0,0,1-.357.594,1.59,1.59,0,0,1-1.215.539m-.257-.792a.96.96,0,0,0,.406-.085,1.033,1.033,0,0,0,.319-.229.98.98,0,0,0,.208-.337,1.145,1.145,0,0,0,.073-.4,1.224,1.224,0,0,0-.121-.542,1.029,1.029,0,0,0-.334-.4.835.835,0,0,0-.5-.15.85.85,0,0,0-.385.092,1.118,1.118,0,0,0-.327.248,1.216,1.216,0,0,0-.225.355v.851a.674.674,0,0,0,.135.246.955.955,0,0,0,.218.187,1.213,1.213,0,0,0,.26.123.874.874,0,0,0,.268.044" transform="translate(-14.845 -7.057)" fill="#7e7885"/>
          <path id="Path_281" data-name="Path 281" d="M82.049,36.411h.93v3.914a.5.5,0,0,0,.083.338.3.3,0,0,0,.23.087,1,1,0,0,0,.229-.027,1.083,1.083,0,0,0,.208-.07l.125.709a1.768,1.768,0,0,1-.438.139,2.389,2.389,0,0,1-.451.048.93.93,0,0,1-.677-.233.886.886,0,0,1-.239-.664Z" transform="translate(-15.901 -7.057)" fill="#7e7885"/>
          <path id="Path_282" data-name="Path 282" d="M84.787,36.41h.93v.923h-.93Zm0,1.43h.93v3.638h-.93Z" transform="translate(-16.432 -7.057)" fill="#7e7885"/>
          <path id="Path_283" data-name="Path 283" d="M89.468,41.479l-1.063-1.557-.493.482v1.075h-.93V36.411h.93v3.084l1.465-1.619h.986l-1.354,1.529,1.45,2.074Z" transform="translate(-16.857 -7.057)" fill="#7e7885"/>
          <path id="Path_284" data-name="Path 284" d="M91.435,40.755a1,1,0,0,1,.2-.614,1.271,1.271,0,0,1,.551-.408A2.146,2.146,0,0,1,93,39.588a3.158,3.158,0,0,1,.465.035,1.574,1.574,0,0,1,.41.11v-.193a.667.667,0,0,0-.2-.525.884.884,0,0,0-.608-.184,1.572,1.572,0,0,0-.568.1,2.9,2.9,0,0,0-.57.306l-.3-.611a2.982,2.982,0,0,1,.739-.354,2.648,2.648,0,0,1,.8-.119,1.768,1.768,0,0,1,1.211.384,1.383,1.383,0,0,1,.434,1.095V40.78a.316.316,0,0,0,.052.2.246.246,0,0,0,.17.076v.757l-.226.035a1.346,1.346,0,0,1-.17.014.619.619,0,0,1-.42-.125.528.528,0,0,1-.177-.306l-.021-.187a1.593,1.593,0,0,1-.59.472,1.674,1.674,0,0,1-.722.167,1.409,1.409,0,0,1-.65-.148,1.131,1.131,0,0,1-.451-.4,1.059,1.059,0,0,1-.164-.58m2.264.181a.953.953,0,0,0,.125-.162.3.3,0,0,0,.048-.149v-.359a1.909,1.909,0,0,0-.361-.106,2.008,2.008,0,0,0-.368-.037,1.055,1.055,0,0,0-.593.153.461.461,0,0,0-.233.4.478.478,0,0,0,.077.257.544.544,0,0,0,.222.2.754.754,0,0,0,.347.075,1.132,1.132,0,0,0,.41-.077,1.033,1.033,0,0,0,.327-.193" transform="translate(-17.72 -7.395)" fill="#7e7885"/>
          <path id="Path_285" data-name="Path 285" d="M97.961,41.887a2.6,2.6,0,0,1-.888-.152,2.022,2.022,0,0,1-.73-.451l.334-.6a2.484,2.484,0,0,0,.643.389,1.649,1.649,0,0,0,.607.125.87.87,0,0,0,.434-.094.3.3,0,0,0,.163-.281.243.243,0,0,0-.09-.2.806.806,0,0,0-.26-.127c-.113-.037-.251-.077-.413-.123a6.47,6.47,0,0,1-.673-.254.983.983,0,0,1-.406-.312.805.805,0,0,1-.135-.483,1.025,1.025,0,0,1,.184-.613,1.206,1.206,0,0,1,.514-.4,1.922,1.922,0,0,1,.774-.144,2.2,2.2,0,0,1,.736.122,1.755,1.755,0,0,1,.632.392l-.376.59a2.259,2.259,0,0,0-.527-.316,1.351,1.351,0,0,0-.507-.1,1.034,1.034,0,0,0-.274.035.458.458,0,0,0-.208.112.3.3,0,0,0-.08.223.271.271,0,0,0,.073.2.624.624,0,0,0,.223.127q.149.054.364.123a6.031,6.031,0,0,1,.739.253,1.168,1.168,0,0,1,.455.318.8.8,0,0,1,.152.516.987.987,0,0,1-.4.834,1.714,1.714,0,0,1-1.063.3" transform="translate(-18.671 -7.396)" fill="#7e7885"/>
          <rect id="Rectangle_51" data-name="Rectangle 51" width="0.93" height="3.603" transform="translate(81.379 30.819)" fill="#7e7885"/>
          <path id="Path_286" data-name="Path 286" d="M13.863,51.846V48.61L12.6,51.019h-.535L10.8,48.61v3.235H9.843V46.916H10.87l1.458,2.8,1.471-2.8h1.021v4.929Z" transform="translate(-1.908 -9.093)" fill="#7e7885"/>
          <path id="Path_287" data-name="Path 287" d="M18.7,52.22a1.938,1.938,0,0,1-1.025-.258,1.769,1.769,0,0,1-.656-.684,1.973,1.973,0,0,1-.235-.921c0-.046,0-.1.006-.155s.009-.1.014-.141h2.812a.951.951,0,0,0-.16-.478.918.918,0,0,0-.347-.3.976.976,0,0,0-.451-.106,1.083,1.083,0,0,0-.531.135.716.716,0,0,0-.337.357L17,49.443a1.532,1.532,0,0,1,.375-.493,1.79,1.79,0,0,1,.576-.337,2.146,2.146,0,0,1,.736-.121,2.059,2.059,0,0,1,.8.148,1.778,1.778,0,0,1,.6.4,1.815,1.815,0,0,1,.382.59,1.9,1.9,0,0,1,.135.714,1.943,1.943,0,0,1-.229.934,1.766,1.766,0,0,1-.656.683,1.932,1.932,0,0,1-1.017.257m.006-.673a.891.891,0,0,0,.455-.115.943.943,0,0,0,.327-.319,1.022,1.022,0,0,0,.149-.475H17.749a.967.967,0,0,0,.5.794.931.931,0,0,0,.458.115" transform="translate(-3.253 -9.398)" fill="#7e7885"/>
          <path id="Path_288" data-name="Path 288" d="M22.011,50.014a2.1,2.1,0,0,1,.208-.943A1.681,1.681,0,0,1,22.8,48.4a1.467,1.467,0,0,1,.84-.248,1.366,1.366,0,0,1,.726.2,1.451,1.451,0,0,1,.5.5V46.744h.93v4.027a.349.349,0,0,0,.048.209.238.238,0,0,0,.167.076v.757a2.123,2.123,0,0,1-.4.048.655.655,0,0,1-.413-.125.453.453,0,0,1-.184-.326L25,51.181a1.349,1.349,0,0,1-.545.521,1.517,1.517,0,0,1-.718.181,1.649,1.649,0,0,1-.691-.144,1.68,1.68,0,0,1-.548-.4,1.828,1.828,0,0,1-.361-.594,2.05,2.05,0,0,1-.128-.731m2.853.477V49.64a.954.954,0,0,0-.222-.354,1.229,1.229,0,0,0-.34-.248.85.85,0,0,0-.764,0,.993.993,0,0,0-.3.239,1.025,1.025,0,0,0-.193.347,1.291,1.291,0,0,0-.066.415,1.166,1.166,0,0,0,.073.412.973.973,0,0,0,.212.337,1.011,1.011,0,0,0,.322.225.971.971,0,0,0,.4.082.848.848,0,0,0,.268-.045,1.091,1.091,0,0,0,.257-.123.966.966,0,0,0,.215-.19.839.839,0,0,0,.142-.242" transform="translate(-4.266 -9.059)" fill="#7e7885"/>
          <path id="Path_289" data-name="Path 289" d="M29.413,52.22a1.938,1.938,0,0,1-1.025-.258,1.763,1.763,0,0,1-.656-.684,1.973,1.973,0,0,1-.235-.921c0-.046,0-.1.006-.155s.01-.1.014-.141h2.812a.951.951,0,0,0-.16-.478.918.918,0,0,0-.347-.3.976.976,0,0,0-.451-.106,1.083,1.083,0,0,0-.531.135.716.716,0,0,0-.337.357l-.792-.222a1.546,1.546,0,0,1,.376-.493,1.778,1.778,0,0,1,.576-.337,2.146,2.146,0,0,1,.736-.121,2.059,2.059,0,0,1,.8.148,1.778,1.778,0,0,1,.6.4,1.815,1.815,0,0,1,.382.59,1.9,1.9,0,0,1,.135.714,1.943,1.943,0,0,1-.229.934,1.766,1.766,0,0,1-.656.683,1.932,1.932,0,0,1-1.017.257m.006-.673a.891.891,0,0,0,.455-.115.943.943,0,0,0,.327-.319,1.022,1.022,0,0,0,.149-.475H28.462a.982.982,0,0,0,.156.475.966.966,0,0,0,.344.319.931.931,0,0,0,.458.115" transform="translate(-5.329 -9.398)" fill="#7e7885"/>
          <path id="Path_290" data-name="Path 290" d="M36.38,52.151h-.93V50.139a1.032,1.032,0,0,0-.153-.63.5.5,0,0,0-.423-.2.852.852,0,0,0-.378.1,1.167,1.167,0,0,0-.343.26,1.019,1.019,0,0,0-.223.384v2.1H33v-3.6h.84v.672a1.349,1.349,0,0,1,.355-.394,1.58,1.58,0,0,1,.5-.248,2.023,2.023,0,0,1,.593-.085,1.143,1.143,0,0,1,.559.12.831.831,0,0,1,.334.322,1.45,1.45,0,0,1,.16.456,2.963,2.963,0,0,1,.045.515Z" transform="translate(-6.395 -9.398)" fill="#7e7885"/>
          <path id="Path_291" data-name="Path 291" d="M38.2,46.744h.93v.923H38.2Zm0,1.43h.93v3.638H38.2Z" transform="translate(-7.403 -9.059)" fill="#7e7885"/>
          <path id="Path_292" data-name="Path 292" d="M40.381,52.873c.083.018.16.035.232.048a1.016,1.016,0,0,0,.185.021.355.355,0,0,0,.218-.065.662.662,0,0,0,.17-.234,3.078,3.078,0,0,0,.174-.468l-1.437-3.613h.965l.979,2.669.861-2.669h.888l-1.528,4.331a1.328,1.328,0,0,1-.253.438,1.212,1.212,0,0,1-.423.31,1.357,1.357,0,0,1-.566.114,1.476,1.476,0,0,1-.223-.017,1.81,1.81,0,0,1-.243-.059Z" transform="translate(-7.737 -9.411)" fill="#7e7885"/>
          <path id="Path_293" data-name="Path 293" d="M45.117,52.873c.083.018.16.035.232.048a1.016,1.016,0,0,0,.185.021.355.355,0,0,0,.218-.065.662.662,0,0,0,.17-.234,3,3,0,0,0,.173-.468l-1.437-3.613h.965L46.6,51.23l.861-2.669h.888l-1.528,4.331a1.328,1.328,0,0,1-.253.438,1.212,1.212,0,0,1-.423.31,1.357,1.357,0,0,1-.566.114,1.476,1.476,0,0,1-.223-.017,1.811,1.811,0,0,1-.243-.059Z" transform="translate(-8.655 -9.411)" fill="#7e7885"/>
          <path id="Path_294" data-name="Path 294" d="M51.311,52.22a1.938,1.938,0,0,1-1.025-.258,1.769,1.769,0,0,1-.656-.684,1.973,1.973,0,0,1-.235-.921c0-.046,0-.1.006-.155s.01-.1.014-.141h2.812a.951.951,0,0,0-.16-.478.912.912,0,0,0-.347-.3.976.976,0,0,0-.451-.106,1.085,1.085,0,0,0-.531.135.716.716,0,0,0-.337.357l-.792-.222a1.546,1.546,0,0,1,.376-.493,1.786,1.786,0,0,1,.576-.337,2.146,2.146,0,0,1,.736-.121,2.056,2.056,0,0,1,.8.148,1.778,1.778,0,0,1,.6.4,1.815,1.815,0,0,1,.382.59,1.9,1.9,0,0,1,.135.714,1.943,1.943,0,0,1-.229.934,1.766,1.766,0,0,1-.656.683,1.932,1.932,0,0,1-1.017.257m.006-.673a.891.891,0,0,0,.455-.115.943.943,0,0,0,.327-.319,1.022,1.022,0,0,0,.149-.475H50.36a.982.982,0,0,0,.156.475.966.966,0,0,0,.344.319.931.931,0,0,0,.458.115" transform="translate(-9.573 -9.398)" fill="#7e7885"/>
          <path id="Path_295" data-name="Path 295" d="M56.944,51.7c-.079.032-.173.069-.285.111a2.321,2.321,0,0,1-.358.1,1.926,1.926,0,0,1-.385.039,1.218,1.218,0,0,1-.472-.089.748.748,0,0,1-.344-.285.921.921,0,0,1-.128-.512V48.993h-.479v-.714h.479V47.1h.93v1.18h.764v.714H55.9v1.754a.353.353,0,0,0,.1.268.365.365,0,0,0,.243.082.842.842,0,0,0,.285-.049c.093-.032.167-.06.222-.083Z" transform="translate(-10.561 -9.128)" fill="#7e7885"/>
          <path id="Path_296" data-name="Path 296" d="M61.272,48.68v3.166h-.959V46.917h.764l2.548,3.249V46.923h.959v4.923h-.8Z" transform="translate(-11.689 -9.093)" fill="#7e7885"/>
          <path id="Path_297" data-name="Path 297" d="M66.41,51.089a1,1,0,0,1,.2-.614,1.271,1.271,0,0,1,.551-.408,2.146,2.146,0,0,1,.813-.144,3.158,3.158,0,0,1,.465.035,1.606,1.606,0,0,1,.41.11v-.193a.667.667,0,0,0-.2-.525.884.884,0,0,0-.608-.184,1.572,1.572,0,0,0-.568.1,2.9,2.9,0,0,0-.57.306l-.3-.611a2.982,2.982,0,0,1,.739-.354,2.648,2.648,0,0,1,.8-.119,1.768,1.768,0,0,1,1.211.384,1.383,1.383,0,0,1,.434,1.095v1.143a.32.32,0,0,0,.052.206.249.249,0,0,0,.17.075v.756c-.084.015-.159.026-.226.035a1.347,1.347,0,0,1-.17.014.619.619,0,0,1-.42-.125.528.528,0,0,1-.177-.306l-.02-.187a1.6,1.6,0,0,1-.591.472,1.674,1.674,0,0,1-.722.167,1.409,1.409,0,0,1-.65-.148,1.131,1.131,0,0,1-.451-.4,1.059,1.059,0,0,1-.164-.58m2.264.181a.952.952,0,0,0,.125-.162.3.3,0,0,0,.048-.149V50.6a1.908,1.908,0,0,0-.361-.106,2.008,2.008,0,0,0-.368-.037,1.055,1.055,0,0,0-.593.153.461.461,0,0,0-.233.4.478.478,0,0,0,.077.257.544.544,0,0,0,.222.2.754.754,0,0,0,.347.075,1.116,1.116,0,0,0,.41-.078,1.017,1.017,0,0,0,.327-.193" transform="translate(-12.87 -9.398)" fill="#7e7885"/>
          <path id="Path_298" data-name="Path 298" d="M71.362,51.6l2.007-2.382H71.446v-.652h2.922v.569l-1.993,2.382H74.4v.652H71.362Z" transform="translate(-13.83 -9.411)" fill="#7e7885"/>
          <path id="Path_299" data-name="Path 299" d="M75.909,46.744h.93v.923h-.93Zm0,1.43h.93v3.638h-.93Z" transform="translate(-14.711 -9.059)" fill="#7e7885"/>
          <path id="Path_300" data-name="Path 300" d="M80.27,49.312a1.712,1.712,0,0,0-.757.163,1,1,0,0,0-.479.469v2.2H78.1v-3.6h.854v.743a1.641,1.641,0,0,1,.493-.591,1.2,1.2,0,0,1,.631-.235H80.2a.332.332,0,0,1,.069.006Z" transform="translate(-15.137 -9.391)" fill="#7e7885"/>
          <path id="Path_301" data-name="Path 301" d="M81.429,46.744h.93v3.914a.5.5,0,0,0,.083.338.3.3,0,0,0,.23.087,1,1,0,0,0,.229-.027,1.083,1.083,0,0,0,.208-.07l.125.709a1.769,1.769,0,0,1-.438.139,2.39,2.39,0,0,1-.451.048.93.93,0,0,1-.677-.233.886.886,0,0,1-.239-.664Z" transform="translate(-15.781 -9.059)" fill="#7e7885"/>
          <path id="Path_302" data-name="Path 302" d="M84.167,46.744h.93v.923h-.93Zm0,1.43h.93v3.638h-.93Z" transform="translate(-16.312 -9.059)" fill="#7e7885"/>
          <path id="Path_303" data-name="Path 303" d="M86.348,52.873c.083.018.16.035.232.048a1.008,1.008,0,0,0,.184.021.356.356,0,0,0,.219-.065.662.662,0,0,0,.17-.234,3.262,3.262,0,0,0,.174-.468L85.89,48.561h.965l.979,2.669.861-2.669h.888l-1.527,4.331a1.328,1.328,0,0,1-.253.438,1.212,1.212,0,0,1-.423.31,1.357,1.357,0,0,1-.566.114,1.476,1.476,0,0,1-.223-.017,1.81,1.81,0,0,1-.243-.059Z" transform="translate(-16.646 -9.411)" fill="#7e7885"/>
          <path id="Path_304" data-name="Path 304" d="M91.1,46.744h.93v.923H91.1Zm0,1.43h.93v3.638H91.1Z" transform="translate(-17.655 -9.059)" fill="#7e7885"/>
        </g>
      </g>
    </g>
  </g>
</svg>
