<svg id="Group_15" data-name="Group 15" xmlns="http://www.w3.org/2000/svg" xmlns:xlink="http://www.w3.org/1999/xlink" width="75.794" height="44.343" viewBox="0 0 75.794 44.343">
  <defs>
    <clipPath id="clip-path">
      <rect id="Rectangle_46" data-name="Rectangle 46" width="75.794" height="44.343" fill="none"/>
    </clipPath>
  </defs>
  <g id="Group_14" data-name="Group 14" transform="translate(0 0)" clip-path="url(#clip-path)">
    <path id="Path_188" data-name="Path 188" d="M56.082,19.993h0a7.347,7.347,0,0,0,1.029-.111l-.013-.189c-.02-.016-.512.015-1.214.063Zm.181.519h0c-1.3-1.526-2.595-3.083-3.922-4.584.042.187.059.463.106.692.041.211.085.468.085.468.126.163,2.88,3.2,3.859,4.44,0-.048-.217-.917-.217-.917Zm-.054,1.329h0l.142-.127c.015-.076-2.861-3.369-3.849-4.5a12.668,12.668,0,0,1-2.553,1.753,8.819,8.819,0,0,0,2.535-1.313c1.211,1.251,3.652,4.174,3.725,4.182m-6.531,6.547h0a9.624,9.624,0,0,1-.806-.651l.023-.3a11.781,11.781,0,0,1,.906.811Zm-.847-.117h0l.028-.363c.238.2.455.38.633.521-.031,0-.4-.092-.662-.158m-.2-.035h0l-.135,0s-.458.77-.492.8c.183-1.571.382-5.665.407-5.868,0,0,.15-.214.272-.393s.314-.4.415-.561c-.123,2-.309,4.008-.467,6.015m-.787.909h0c.061-.043.356-4.4.454-5.9a12.431,12.431,0,0,1-3.044-.573,8.57,8.57,0,0,0,2.722.867c-.03,1.744-.372,5.535-.321,5.592ZM38.6,29.134h0l-.193.012c-.061-.043-.353-4.4-.449-5.9A12.455,12.455,0,0,0,41,22.674a8.583,8.583,0,0,1-2.719.867c.03,1.744.367,5.535.318,5.592m-.841-.893h0s.46.77.489.8c-.18-1.571-.38-5.665-.406-5.868,0,0-.15-.214-.269-.393s-.311-.4-.417-.561c.124,2,.308,4.008.468,6.015Zm-.4-.808h0c-.533.463-.9.784-.906.811l.124.141a8.327,8.327,0,0,0,.8-.648Zm-.015-.17h0l-.052-.589c-.97.847-1.813,1.6-1.836,1.663l.085.139c.017-.006.287-.232.287-.232l.2.189ZM29.9,21.715h0l.145.124c.076-.006,2.514-2.927,3.727-4.178a8.781,8.781,0,0,0,2.536,1.313,12.566,12.566,0,0,1-2.557-1.753c-.984,1.127-3.865,4.418-3.851,4.5m.181-1.1h0s-.221.87-.221.918c.984-1.24,3.738-4.277,3.86-4.44,0,0,.047-.257.087-.468.046-.229.066-.5.106-.692-.328.372-.652.759-.975,1.138V17.06l-2.95,3.452Zm-.254-.21h0c-.232-.138-.558-.337-.579-.361.222.029.5.056.814.084Zm-.669-.708h0c.017-.016.511.015,1.211.063l-.2.237a7.478,7.478,0,0,1-1.031-.111Zm-.442-8.614h0l-.365.032.038.163c.062.03,1.186-.037,2.472-.12l-.385-.454-1.753.1Zm1.346-.874h0l-.235-.276c-.232.134-.558.335-.579.356.222-.023.5-.051.814-.08m.11.136h0a7.879,7.879,0,0,0-1.031.1l.017.19c.017.015.511-.018,1.211-.066ZM29.864,8.8h0c0,.047.221.916.221.916l-.093.1,2.95,3.448v-.006c.324.38.647.765.975,1.14-.041-.19-.061-.458-.106-.691-.04-.211-.087-.473-.087-.473-.123-.158-2.876-3.194-3.86-4.434m.185-.313h0l-.145.124c-.014.076,2.867,3.365,3.851,4.492a12.539,12.539,0,0,1,2.557-1.748,8.734,8.734,0,0,0-2.536,1.306c-1.213-1.25-3.652-4.169-3.727-4.175m7.3-5.425h0l-.052.6c-.97-.857-1.813-1.6-1.836-1.67l.085-.138c.017.007.287.234.287.234l.2-.19Zm.015-.168h0c-.533-.46-.9-.784-.906-.811l.124-.146a10.157,10.157,0,0,1,.8.653Zm.071-.84h0L37.4,2.42c-.237-.2-.454-.379-.631-.52.031,0,.4.09.665.155m.193.036h0l.136,0s.46-.771.489-.8c-.18,1.571-.38,5.665-.406,5.869,0,0-.15.214-.269.393-.131.2-.311.4-.417.563.124-2,.308-4.012.468-6.019m.784-.91h0c-.061.044-.353,4.405-.449,5.9A12.477,12.477,0,0,1,41,7.65a8.582,8.582,0,0,0-2.719-.864c.03-1.745.367-5.533.318-5.592Zm9.251.014h0l.189-.014c.061.044.356,4.405.454,5.9a12.453,12.453,0,0,0-3.044.569,8.569,8.569,0,0,1,2.722-.864c-.03-1.745-.372-5.533-.321-5.592m.841.9h0l.135,0c.158,2.007.344,4.021.467,6.019-.1-.164-.285-.366-.415-.563-.122-.179-.272-.393-.272-.393-.025-.2-.224-4.3-.407-5.869.034.033.492.8.492.8m.993-.189h0c-.031,0-.4.09-.662.155l.028.365c.238-.2.455-.379.633-.52m-.6.995h0c.537-.46.906-.784.91-.811l-.128-.146a10.333,10.333,0,0,0-.806.653Zm.02.168h0l.05.6c.967-.857,1.81-1.6,1.832-1.67l-.085-.136c-.016,0-.281.232-.281.232l-.2-.19Zm7.438,5.55h0c.013.077-2.863,3.365-3.852,4.492a12.64,12.64,0,0,0-2.553-1.748,8.71,8.71,0,0,1,2.535,1.306c1.211-1.25,3.652-4.169,3.725-4.175Zm-.179,1.1h0l.089.1-2.946,3.448v-.006c-.328.38-.643.765-.976,1.14.042-.19.059-.458.106-.691.041-.211.085-.471.085-.471.126-.16,2.88-3.2,3.859-4.436,0,.047-.217.916-.217.916m.017.488h0l.239-.276c.228.134.554.337.58.356-.229-.023-.508-.051-.819-.08m-.11.136h0a7.741,7.741,0,0,1,1.029.1l-.013.19c-.02.015-.512-.018-1.214-.066Zm-.306.358h0l1.757.1.008.279.362.032-.033.163c-.067.03-1.189-.037-2.476-.12ZM37.44,28.385h0l0,.049a1.836,1.836,0,0,0,.3.011,7.582,7.582,0,0,1,.5.837h.361a4.2,4.2,0,0,0,.032.42h.3a3.4,3.4,0,0,0,.04.386l.306-.045a1.532,1.532,0,0,0,.042.284,5.655,5.655,0,0,0,2.185-1.133,8.272,8.272,0,0,0,1.547-1.622.807.807,0,0,0,.072-.077.6.6,0,0,0,.073.077,8.292,8.292,0,0,0,1.546,1.622,5.628,5.628,0,0,0,2.187,1.133,1.777,1.777,0,0,0,.041-.284l.3.045a3.21,3.21,0,0,0,.041-.386h.3s.033-.277.031-.42h.358a6.8,6.8,0,0,1,.51-.837,1.793,1.793,0,0,0,.3-.011l0-.049c.281.055.392.085.843.212l.252-.254c.1.1.321.275.321.275l.211-.212c.128.108.194.172.3.247l.191-.243a1.955,1.955,0,0,0,.228.167A5.585,5.585,0,0,0,51.9,26.23a8.227,8.227,0,0,0-.047-2.238,1.044,1.044,0,0,0-.006-.109.907.907,0,0,0,.109.007,8.262,8.262,0,0,0,2.238.049,5.627,5.627,0,0,0,2.347-.745,1.58,1.58,0,0,0-.172-.226l.247-.19c-.076-.1-.136-.172-.247-.3l.213-.209s-.176-.22-.275-.318l.254-.252a6.528,6.528,0,0,1-.232-.957,1.562,1.562,0,0,0,.2-.219l-.343-.4c.311-.028.589-.054.819-.082-.025.022-.352.221-.58.359l.072.086a6.99,6.99,0,0,1,.745-.445v-.354c.141,0,.421-.036.421-.036l0-.3a3.309,3.309,0,0,0,.385-.039l-.041-.3a1.892,1.892,0,0,0,.285-.046,5.619,5.619,0,0,0-1.136-2.18,8.44,8.44,0,0,0-1.615-1.551l-.083-.074a.617.617,0,0,0,.08-.073,8.375,8.375,0,0,0,1.618-1.544A5.651,5.651,0,0,0,58.3,11.361a1.8,1.8,0,0,0-.285-.045l.041-.3a3.346,3.346,0,0,0-.385-.037l0-.3s-.28-.035-.421-.035v-.355a6.579,6.579,0,0,1-.745-.446l.033-.037c-.033-.039-.154-.178-.2-.221a6.617,6.617,0,0,1,.232-.949l-.254-.252c.1-.1.275-.319.275-.319l-.213-.213a3.414,3.414,0,0,0,.247-.3l-.247-.185a1.667,1.667,0,0,0,.172-.232A5.653,5.653,0,0,0,54.2,6.388a8.329,8.329,0,0,0-2.238.053s-.067,0-.109,0a1.047,1.047,0,0,0,.006-.11A8.221,8.221,0,0,0,51.9,4.1a5.582,5.582,0,0,0-.741-2.346,2.077,2.077,0,0,0-.228.169l-.186-.243a3.384,3.384,0,0,0-.3.243l-.209-.212s-.222.176-.32.275l-.254-.254a7.022,7.022,0,0,1-.843.212l0-.046a1.871,1.871,0,0,0-.3-.014,6.855,6.855,0,0,1-.51-.834h-.358c0-.142-.031-.421-.031-.421h-.3C47.308.459,47.3.367,47.284.24L46.975.28A1.8,1.8,0,0,0,46.935,0a5.607,5.607,0,0,0-2.187,1.134A8.325,8.325,0,0,0,43.2,2.749a1.057,1.057,0,0,0-.073.082c-.024-.031-.072-.082-.072-.082A8.305,8.305,0,0,0,41.51,1.134,5.623,5.623,0,0,0,39.325,0a1.549,1.549,0,0,0-.042.28L38.977.24a3.441,3.441,0,0,0-.04.387h-.3s-.034.279-.032.421h-.361a7.648,7.648,0,0,1-.5.834,1.91,1.91,0,0,0-.3.014l0,.046a6.934,6.934,0,0,1-.847-.212l-.252.254c-.1-.1-.317-.277-.317-.277l-.211.215a3.164,3.164,0,0,0-.3-.243l-.189.243a2.346,2.346,0,0,0-.228-.169A5.664,5.664,0,0,0,34.356,4.1,8.156,8.156,0,0,0,34.4,6.335s0,.068,0,.11c-.041,0-.1,0-.1,0a8.358,8.358,0,0,0-2.242-.053,5.639,5.639,0,0,0-2.344.743,1.366,1.366,0,0,0,.168.232l-.247.185a3.565,3.565,0,0,0,.247.3l-.214.213s.175.221.275.319l-.249.252a7.779,7.779,0,0,1,.232.949,2.375,2.375,0,0,0-.2.221l.028.037a6.523,6.523,0,0,1-.741.446v.355c-.145,0-.419.035-.419.035v.3a3.663,3.663,0,0,0-.39.037l.045.3a1.785,1.785,0,0,0-.284.045A5.6,5.6,0,0,0,29.1,13.542a8.216,8.216,0,0,0,1.613,1.546.5.5,0,0,0,.08.073.915.915,0,0,0-.08.074A8.264,8.264,0,0,0,29.1,16.786a5.57,5.57,0,0,0-1.139,2.18,1.881,1.881,0,0,0,.284.046l-.045.3a3.63,3.63,0,0,0,.39.039v.3s.275.036.419.036v.354a7.191,7.191,0,0,1,.741.445l-.028.037a1.358,1.358,0,0,0,.2.219,7.473,7.473,0,0,1-.232.954l.249.255a4.117,4.117,0,0,0-.275.318l.214.209c-.11.128-.172.2-.247.3l.247.19a1.3,1.3,0,0,0-.168.226,5.6,5.6,0,0,0,2.344.745A8.291,8.291,0,0,0,34.3,23.89a.827.827,0,0,0,.1-.007c0,.042,0,.109,0,.109a8.163,8.163,0,0,0-.047,2.238,5.675,5.675,0,0,0,.741,2.347,2.192,2.192,0,0,0,.228-.167l.189.243c.1-.076.173-.139.3-.247l.211.212s.218-.173.317-.275l.252.254a7.99,7.99,0,0,1,.847-.212m9.752-11.539h0l1.685-1.684-1.685-1.678V11.1h-2.38L43.129,9.417,41.444,11.1h-2.38v2.384l-1.684,1.678,1.684,1.684v2.381h2.378l1.687,1.685,1.683-1.685h2.38Zm2.027-1.877h0a9.232,9.232,0,0,0,1.213-1.027L48.7,13c-.023.075-.05.152-.072.228a4.357,4.357,0,0,0-.213.932Zm.118.119h0l-.045-.042a6.827,6.827,0,0,0,1.32-1.007l1.606.869,3.072-3.632c.92.054,1.821.111,2.833.176a6.17,6.17,0,0,1-1.145,2.092,9.58,9.58,0,0,1-.778.836,2.4,2.4,0,0,1-.869.632,3.881,3.881,0,0,1-.757.05c-.787,0-1.569.011-2.344.026Zm-.045.19h0a7.072,7.072,0,0,1,1.32,1.01l1.606-.87,3.557,4.21,1.757-.1.008-.282s.351-.027.362-.036l-.037-.163c-.063-.028-1.186.039-2.473.125l-.1-.125c.92-.055,1.821-.113,2.833-.179a6.1,6.1,0,0,0-1.145-2.086,9.025,9.025,0,0,0-.778-.839,2.329,2.329,0,0,0-.869-.629,3.809,3.809,0,0,0-.757-.052c-.787,0-1.571-.015-2.352-.031H49.337Zm-.883.89h0a4.664,4.664,0,0,0,.215.933c.021.069.049.15.072.222l1.736-.936a8.66,8.66,0,0,0-1.213-1.032Zm-.839,1.764h0l.974-.527-.314-1.055L47.57,17Zm0,1.4h0V18.19a4.339,4.339,0,0,1,.815-.507c1.183-.631,2.609-1.448,3.78-2.008a.514.514,0,0,1-.19.532c-.788.448-1.589.828-2.353,1.249-.306.169-1.529.815-1.884,1.084-.024.017-.02.026,0,.017,1.214-.614,3.366-1.576,4.55-2.335.046.229,0,.277-.148.385A16.613,16.613,0,0,1,49.3,18.2c-.329.15-1.184.524-1.522.732-.021.012,0,.016.027,0a15.835,15.835,0,0,0,4-1.847c.1-.078.178-.129.52-.363l.068.428c-.049.041-.241.215-.291.256a7.073,7.073,0,0,1-4.188,1.923c-.021,0-.041,0-.06,0-.075,0-.059.021.037.023a6.084,6.084,0,0,0,1.888-.182c.1-.027.2-.053.3-.084a8.453,8.453,0,0,0,2.155-1c.093-.068.185-.121.276-.193L56.4,22.263l-.192.2s.226.266.233.285l-.139.085c-.12-.046-2.652-2.978-3.753-4.227-.18.091-.356.141-.533.211a7.462,7.462,0,0,1-4.444.514m0,.173h0v-.064a6.943,6.943,0,0,0,4.948-.58c1.484,1.6,2.509,2.775,3.837,4.281a6.06,6.06,0,0,1-2.29.667,8.634,8.634,0,0,1-1.139.041,2.323,2.323,0,0,1-1.061-.169,4.066,4.066,0,0,1-.571-.5c-.555-.561-1.119-1.1-1.68-1.639Zm1.408,7h0l.4-4.738-1.756-.519a6.875,6.875,0,0,0-.219-1.645h.063l2.046,2.041c.535.561,1.079,1.127,1.636,1.684a3.5,3.5,0,0,1,.5.569,2.36,2.36,0,0,1,.172,1.063,9.748,9.748,0,0,1-.04,1.137,6.131,6.131,0,0,1-.671,2.29c-.759-.667-1.439-1.267-2.129-1.882m-.012.166h0c.967.847,1.81,1.6,1.832,1.663l-.085.139c-.016-.006-.281-.232-.281-.232l-.206.189-1.31-1.171Zm-2.813-7.068H47.3a8.82,8.82,0,0,1,.126,1.587l-1.892-.567c.037-.07.076-.138.113-.208a4.312,4.312,0,0,1,.506-.811m-1.84.659h0l.658-.659H45.9l-.528.971Zm-.994.986h0a7.484,7.484,0,0,0,3.505,2.781c.179.073.339.16.525.228-.1,1.657-.386,5.524-.332,5.642l.16.034c.01-.012.035-.364.035-.364l.281-.006.332-5.837c-.12-.012-.22-.041-.332-.06a8.682,8.682,0,0,1-2.233-.815c-.088-.054-.176-.1-.266-.149a6.178,6.178,0,0,1-1.465-1.21c-.064-.067-.064-.1-.007-.041.013.011.027.026.043.037a7.064,7.064,0,0,0,4.321,1.6c.066.007.324.02.389.023l.254-.353c-.407-.072-.5-.092-.624-.111a15.833,15.833,0,0,1-4.143-1.525c-.024-.007-.036-.025-.012-.024.388.1,1.257.434,1.592.563a16.733,16.733,0,0,0,3.136.884c.18.024.247.024.376-.169-1.37-.3-3.572-1.139-4.865-1.566-.022-.009-.02-.015.012-.011.435.064,1.764.471,2.1.569.843.241,1.673.54,2.551.78a.52.52,0,0,0,.511-.248c-1.231-.428-2.817-.858-4.1-1.251a4.366,4.366,0,0,0-.932-.211Zm-.118.124h0l.045-.046a6.906,6.906,0,0,0,3.91,3.083c-.085,2.187-.193,3.748-.315,5.745a6.115,6.115,0,0,1-2.094-1.145,9.63,9.63,0,0,1-.835-.776,2.425,2.425,0,0,1-.632-.872,3.967,3.967,0,0,1-.049-.754c0-.785-.014-1.569-.03-2.348Zm-.188-.046h0l.043.046v2.883c-.016.777-.033,1.566-.033,2.352a3.9,3.9,0,0,1-.05.754,2.31,2.31,0,0,1-.632.872,9.879,9.879,0,0,1-.833.776,6.086,6.086,0,0,1-2.094,1.145c-.124-2-.23-3.558-.311-5.745a6.928,6.928,0,0,0,3.909-3.083m-.884-.882h0a4.407,4.407,0,0,0-.937.211c-1.284.393-2.866.823-4.092,1.251a.516.516,0,0,0,.51.248c.876-.24,1.707-.538,2.548-.78.333-.1,1.656-.5,2.1-.569.03,0,.036,0,.013.019-1.295.419-3.5,1.26-4.87,1.558.133.193.2.193.381.169a16.769,16.769,0,0,0,3.131-.884c.337-.129,1.206-.467,1.594-.563.025,0,.017.017-.012.024a15.849,15.849,0,0,1-4.138,1.525c-.132.019-.22.038-.632.111l.263.353c.059,0,.321-.016.384-.023a7.083,7.083,0,0,0,4.322-1.6c.015-.011.029-.027.043-.037.053-.057.053-.027,0,.043a6.333,6.333,0,0,1-1.471,1.208c-.088.049-.18.1-.265.149a8.679,8.679,0,0,1-2.232.815c-.113.02-.214.048-.332.06l.332,5.837.278.006s.031.352.038.364l.161-.034c.057-.118-.234-3.986-.331-5.642.183-.068.345-.155.523-.228a7.431,7.431,0,0,0,3.5-2.781Zm-1.771-.841h0l.529.971,1.058-.312-.656-.659Zm-1.4,0H40.1a4.157,4.157,0,0,1,.508.811c.037.07.077.138.112.208l-1.892.567a8.67,8.67,0,0,1,.13-1.587m-.172,0h0l-2.047,2.043c-.537.562-1.078,1.126-1.632,1.682a3.553,3.553,0,0,0-.5.569,2.328,2.328,0,0,0-.17,1.063,9.553,9.553,0,0,0,.041,1.137,6.086,6.086,0,0,0,.671,2.29c.757-.667,1.436-1.267,2.126-1.882l-.4-4.738,1.755-.519a6.994,6.994,0,0,1,.215-1.645Zm-.1-.164h0a6.946,6.946,0,0,1-4.949-.58c-1.482,1.6-2.509,2.775-3.835,4.281a6.065,6.065,0,0,0,2.288.667,9.618,9.618,0,0,0,1.141.041,2.335,2.335,0,0,0,1.06-.169,4.115,4.115,0,0,0,.571-.5c.556-.561,1.123-1.1,1.683-1.641l2.04-2.039Zm0-1.252h0a4.543,4.543,0,0,0-.81-.507c-1.186-.631-2.613-1.448-3.786-2.008a.526.526,0,0,0,.191.532c.791.448,1.586.828,2.354,1.248.306.171,1.527.817,1.884,1.085.027.017.021.026,0,.017-1.214-.614-3.367-1.576-4.551-2.335-.041.229.007.277.153.385a16.455,16.455,0,0,0,2.843,1.59c.326.15,1.182.522,1.521.732.02.012,0,.016-.028,0a15.839,15.839,0,0,1-4-1.847c-.106-.078-.183-.129-.524-.363l-.068.428c.045.041.244.215.292.256a7.075,7.075,0,0,0,4.191,1.923.288.288,0,0,1,.058,0c.079,0,.059.021-.039.023a6.111,6.111,0,0,1-1.888-.182c-.1-.027-.193-.056-.293-.084a8.416,8.416,0,0,1-2.154-1c-.093-.068-.186-.121-.28-.193l-3.892,4.361.192.2s-.225.266-.231.285l.139.085c.12-.046,2.657-2.978,3.754-4.227.18.091.354.141.531.211a7.465,7.465,0,0,0,4.445.514Zm-.659-1.84h0l.659.653v.929l-.976-.527Zm-.986-.995h0a8.759,8.759,0,0,0-1.216,1.032l1.743.936c.021-.072.043-.153.067-.227a4.326,4.326,0,0,0,.212-.928Zm-.123-.12h0l.048.043a7.114,7.114,0,0,0-1.319,1.01l-1.611-.87-3.557,4.21-1.753-.1-.007-.282s-.35-.027-.365-.036l.038-.163c.062-.028,1.186.039,2.472.125l.109-.125c-.929-.055-1.826-.113-2.836-.179a6.069,6.069,0,0,1,1.141-2.086,9.374,9.374,0,0,1,.778-.839,2.306,2.306,0,0,1,.873-.629,3.783,3.783,0,0,1,.754-.052c.785,0,1.57-.015,2.346-.031Zm.048-.189h0a6.865,6.865,0,0,1-1.319-1.007l-1.611.869-3.063-3.632c-.928.054-1.826.111-2.836.176a6.106,6.106,0,0,0,1.141,2.09,9.843,9.843,0,0,0,.778.838,2.37,2.37,0,0,0,.873.629,3.661,3.661,0,0,0,.754.053c.789,0,1.571.011,2.349.026h2.886Zm.881-.883h0a4.305,4.305,0,0,0-.212-.932c-.024-.076-.046-.154-.067-.228l-1.743.94a9.343,9.343,0,0,0,1.216,1.027Zm.839-1.767h0l-.976.523.317,1.062.659-.655Zm0-1.4h0v1.139a4.593,4.593,0,0,1-.81.509c-1.186.632-2.613,1.448-3.786,2.007a.523.523,0,0,1,.191-.53c.791-.452,1.586-.827,2.354-1.252.306-.164,1.527-.816,1.884-1.08.027-.02.021-.03,0-.02-1.214.615-3.367,1.574-4.551,2.335a.3.3,0,0,1,.153-.385,16.461,16.461,0,0,1,2.843-1.591c.326-.146,1.182-.525,1.521-.729.02-.015,0-.019-.028-.007a15.653,15.653,0,0,0-4,1.849c-.106.076-.183.126-.524.368l-.068-.434c.045-.037.244-.216.292-.259A7.079,7.079,0,0,1,38.346,11H38.4c.079,0,.059-.023-.034-.028a6.029,6.029,0,0,0-1.893.186c-.1.024-.193.058-.293.081a8.436,8.436,0,0,0-2.154,1c-.093.063-.186.119-.28.191L29.856,8.065l.192-.2s-.225-.271-.231-.285l.139-.089c.124.043,2.657,2.981,3.754,4.225.18-.085.354-.137.531-.211A7.5,7.5,0,0,1,38.686,11m0-.175h0v.065a6.931,6.931,0,0,0-4.949.579c-1.482-1.6-2.509-2.777-3.835-4.282a6.14,6.14,0,0,1,2.288-.667,9.077,9.077,0,0,1,1.141-.043,2.28,2.28,0,0,1,1.06.171,3.977,3.977,0,0,1,.571.5c.553.56,1.121,1.1,1.679,1.637Zm.163-.1h-.06l-2.04-2.04C36.208,8.118,35.665,7.555,35.11,7a3.651,3.651,0,0,1-.5-.566,2.338,2.338,0,0,1-.17-1.062,9.56,9.56,0,0,1,.041-1.138,6.1,6.1,0,0,1,.671-2.293c.757.672,1.436,1.263,2.128,1.881l-.4,4.738,1.755.52a6.974,6.974,0,0,0,.215,1.646m1.253,0H38.961a8.687,8.687,0,0,1-.13-1.587l1.892.566c-.035.069-.076.146-.112.207a4.3,4.3,0,0,1-.508.814m1.843-.659h0l-.656.659h-.931l.529-.972Zm.989-.988h0a7.486,7.486,0,0,0-3.5-2.779c-.176-.073-.34-.165-.523-.229.1-1.659.388-5.522.331-5.637L39.079.389c-.007.013-.036.364-.036.364l-.28.007L38.43,6.6c.119.009.219.041.332.06a8.4,8.4,0,0,1,2.232.817c.085.049.177.1.265.15a6.132,6.132,0,0,1,1.471,1.2c.058.075.058.1,0,.049a.294.294,0,0,0-.043-.041A7.089,7.089,0,0,0,38.37,7.232c-.063,0-.324-.022-.384-.024l-.263.354c.411.073.5.089.632.111a16.06,16.06,0,0,1,4.138,1.52c.029.017.041.032.012.025a15.685,15.685,0,0,1-1.594-.558,16.172,16.172,0,0,0-3.131-.883.306.306,0,0,0-.381.165c1.375.3,3.575,1.144,4.87,1.569.023.006.017.016-.013.009-.442-.064-1.765-.467-2.1-.566-.841-.244-1.671-.542-2.548-.781a.514.514,0,0,0-.51.243c1.226.434,2.809.864,4.095,1.254a4.083,4.083,0,0,0,.935.212Zm.122-.122h0L43.014,9A6.938,6.938,0,0,0,39.1,5.912c.081-2.181.187-3.743.311-5.742A6.042,6.042,0,0,1,41.51,1.314a10.229,10.229,0,0,1,.833.777,2.292,2.292,0,0,1,.632.872,3.91,3.91,0,0,1,.05.754c0,.785.016,1.571.033,2.346ZM43.247,9h0a6.916,6.916,0,0,1,3.91-3.086c-.085-2.181-.193-3.743-.315-5.742a6.07,6.07,0,0,0-2.094,1.144,10.223,10.223,0,0,0-.835.777,2.4,2.4,0,0,0-.632.872,3.982,3.982,0,0,0-.049.754c0,.788-.014,1.571-.03,2.349V8.953Zm.884.883h0l-.811-.806A7.53,7.53,0,0,1,46.825,6.3c.179-.073.339-.165.525-.229-.1-1.659-.386-5.522-.332-5.637L47.18.389c.008.013.033.364.033.364l.281.007L47.827,6.6c-.12.009-.22.041-.332.06a8.456,8.456,0,0,0-2.233.817c-.088.049-.176.1-.264.15a6.007,6.007,0,0,0-1.466,1.2c-.064.075-.064.1-.007.049a.231.231,0,0,1,.043-.041,7.07,7.07,0,0,1,4.321-1.606c.066,0,.324-.022.389-.024l.259.354-.629.111a15.937,15.937,0,0,0-4.138,1.52c-.029.017-.041.032-.017.025a15.585,15.585,0,0,0,1.592-.558,16.14,16.14,0,0,1,3.136-.883.3.3,0,0,1,.376.165c-1.37.3-3.572,1.144-4.865,1.569-.022.006-.02.016.012.009.435-.064,1.764-.467,2.1-.566.843-.244,1.673-.542,2.551-.781a.519.519,0,0,1,.511.243c-1.231.434-2.817.864-4.1,1.254a4.321,4.321,0,0,1-.932.212m1.767.841h0L45.37,9.75l-1.056.313.658.659Zm1.568,0H47.4a6.62,6.62,0,0,0,.219-1.646l-.2.059a8.837,8.837,0,0,1-.126,1.587H46.156a4.539,4.539,0,0,1-.508-.811c-.037-.064-.076-.141-.113-.21l3.843-1.145-.4-4.738c.69-.618,1.37-1.209,2.129-1.881a6.084,6.084,0,0,1,.671,2.293,9.777,9.777,0,0,1,.04,1.138,2.338,2.338,0,0,1-.17,1.062,3.694,3.694,0,0,1-.5.566c-.556.555-1.1,1.122-1.635,1.68Zm.1.166h0v-.065l2.041-2.041c.56-.537,1.126-1.08,1.684-1.64a4.033,4.033,0,0,1,.571-.5,2.269,2.269,0,0,1,1.061-.171,9.03,9.03,0,0,1,1.139.043,6.06,6.06,0,0,1,2.29.667C55.028,8.69,54,9.867,52.519,11.467a6.925,6.925,0,0,0-4.948-.579m0,1.249h0a4.069,4.069,0,0,0,.815.509c1.183.632,2.609,1.448,3.78,2.009a.512.512,0,0,0-.19-.532c-.788-.452-1.589-.827-2.353-1.252-.306-.163-1.529-.816-1.884-1.08-.024-.02-.02-.03,0-.02,1.214.615,3.366,1.574,4.55,2.339.046-.231,0-.28-.148-.389A16.558,16.558,0,0,0,49.3,12.131c-.329-.146-1.184-.525-1.522-.729-.021-.015,0-.019.027-.007a15.648,15.648,0,0,1,4,1.849c.1.076.178.126.52.368l.068-.434c-.049-.037-.241-.216-.291-.259A7.077,7.077,0,0,0,47.913,11h-.06c-.075,0-.059-.02.037-.028a6.09,6.09,0,0,1,1.892.184c.1.026.2.06.293.084a8.473,8.473,0,0,1,2.155,1c.093.063.185.123.276.191L56.4,8.065l-.192-.2s.226-.271.233-.285L56.3,7.492c-.12.043-2.652,2.985-3.753,4.225-.18-.085-.356-.137-.533-.211A7.492,7.492,0,0,0,47.57,11Zm0,1.188h0V12.4l.974.523L48.23,13.98ZM37.43,28.272c-.264.066-.634.156-.665.158.177-.141.393-.322.631-.521Z" transform="translate(-5.232 0)" fill="#7c6427" fill-rule="evenodd"/>
    <path id="Path_189" data-name="Path 189" d="M47.948,22.223h0Z" transform="translate(-8.971 -4.158)" fill="#7c6427" fill-rule="evenodd"/>
    <path id="Path_190" data-name="Path 190" d="M43.758,21.405h.021s0-.011,0-.011Z" transform="translate(-8.187 -4.003)" fill="#7c6427" fill-rule="evenodd"/>
    <path id="Path_191" data-name="Path 191" d="M47.182,22.692h0l.125-.017v-.054c-.036-.046-.093-.022-.125-.022-.024.047-.05.047-.057.047Zm-.361.124h0c.084,0,.193,0,.243-.06v-.046a.331.331,0,0,0-.235.046.083.083,0,0,1-.024.036c0,.01.015.01.015.024m-.772.02h0a.4.4,0,0,0,.219-.034.239.239,0,0,0-.151-.046.163.163,0,0,1-.068.011c0,.012-.011.024-.011.049l.011.012Zm-.2-.068.1-.011v-.046a.206.206,0,0,0-.15,0h-.028a.112.112,0,0,0,.073.057" transform="translate(-8.565 -4.227)" fill="#fff" fill-rule="evenodd"/>
    <path id="Path_192" data-name="Path 192" d="M46.787,22.678l.007-.013s-.007.013-.017.013Z" transform="translate(-8.752 -4.24)" fill="#fff" fill-rule="evenodd"/>
    <path id="Path_193" data-name="Path 193" d="M46.8,22.458l.015-.018Z" transform="translate(-8.756 -4.198)" fill="#fff" fill-rule="evenodd"/>
    <path id="Path_194" data-name="Path 194" d="M46.289,22.39a.008.008,0,0,0,.008-.009Z" transform="translate(-8.661 -4.187)" fill="#fff" fill-rule="evenodd"/>
    <path id="Path_195" data-name="Path 195" d="M45.868,22.323h0Z" transform="translate(-8.582 -4.176)" fill="#fff" fill-rule="evenodd"/>
    <path id="Path_196" data-name="Path 196" d="M47.954,22.285h0Z" transform="translate(-8.972 -4.169)" fill="#fff" fill-rule="evenodd"/>
    <path id="Path_197" data-name="Path 197" d="M47.51,22.285h0Z" transform="translate(-8.889 -4.169)" fill="#fff" fill-rule="evenodd"/>
    <path id="Path_198" data-name="Path 198" d="M48.551,21.673l.219-.06c0-.02-.007-.026-.007-.026a2.183,2.183,0,0,1-.283.059Z" transform="translate(-9.07 -4.039)" fill="#fff" fill-rule="evenodd"/>
    <path id="Path_199" data-name="Path 199" d="M43.791,21.47h.02v0Z" transform="translate(-8.193 -4.016)" fill="#fff" fill-rule="evenodd"/>
    <path id="Path_200" data-name="Path 200" d="M48.865,21.407a.363.363,0,0,0,.235-.09l-.033-.022c-.081.042-.141.081-.213.112Z" transform="translate(-9.14 -3.984)" fill="#fff" fill-rule="evenodd"/>
    <path id="Path_201" data-name="Path 201" d="M42.348,19.927h0l-.03-.02c0-.017-.011-.028,0-.059l.056.041v.017c0,.02-.011.02-.011,0,0,.02-.015.02-.015.02m2.84,2.89c.216,0,.329-.2.5-.24a.427.427,0,0,1,.232.113.512.512,0,0,0,.488.044.121.121,0,0,0,.055-.114V22.6a2.177,2.177,0,0,1-.419-.185c.237,0,.408.26.626.185.029,0,.076-.024.076-.057v-.055c-.185-.086-.382-.131-.519-.2a2.149,2.149,0,0,1,.558.167c.08.031.185.056.251.086a1.09,1.09,0,0,1-.367.146V22.7a.526.526,0,0,0,.367.038.672.672,0,0,0,.348-.133l.072-.251h.086l.011.008-.068.1c0,.031.012.031.028.031.129-.045.224-.131.35-.188l.111-.244s0-.017-.011-.017l-.045-.053a2.1,2.1,0,0,1-.6.1H47.31A3.523,3.523,0,0,0,48.5,21.7a.13.13,0,0,0-.015-.043,1.166,1.166,0,0,1-.771.217,4.146,4.146,0,0,0,.55-.185c.177-.106.361-.22.5-.306v-.045a1.083,1.083,0,0,1-.616.2h0a2.88,2.88,0,0,0,.545-.245c.113-.124.224-.155.352-.3,0-.019,0-.019-.014-.019a1.215,1.215,0,0,1-.3.191.357.357,0,0,1-.254.093h0a.877.877,0,0,0,.365-.227c.126-.129.268-.226.378-.357l-.014-.012a1.746,1.746,0,0,1-.491.3,1.66,1.66,0,0,0,.592-.558l-.015-.042c-.072.07-.182.2-.266.273a4.9,4.9,0,0,0,.541-.762c0-.03-.007-.03-.007-.03-.141.171-.215.413-.45.474a2.757,2.757,0,0,0,.392-.517c.025-.088.1-.115.1-.211,0,0,0-.019-.029-.019a.964.964,0,0,1-.222.331c.042-.1.1-.217.156-.331.025-.1.109-.159.125-.254H49.6l-.152.241v-.015l.2-.633h-.015a1.289,1.289,0,0,1-.154.344c-.028,0,0-.014,0-.039l.137-.433H49.6l-.124.293.124-.447h-.029l-.066.241c-.057-.171.059-.383.066-.533l-.041-.009a1.432,1.432,0,0,1-.139.576h-.028l.059-.344-.013-.019-.186.656c-.014,0-.014.019-.014,0,0-.212.1-.415.1-.569-.015.1-.087.2-.1.324a3.993,3.993,0,0,1-.166.39c-3.2,4.1-6.263,1.091-6.921-.685h-.018c-.041-.029-.041-.1-.067-.116-.07-.054-.158.019-.167.045-.043.1-.071.241,0,.318v.007l.054.074v.047c-.046.043-.071.043-.1.111-.028.028,0,.073,0,.128l-.154.047a.3.3,0,0,0,.015.146.625.625,0,0,0,.15.109v.076l.128.038a.4.4,0,0,0,.155.346.245.245,0,0,0,.163.045.429.429,0,0,0,.087.328c0,.016,0,.016.033.016-.033.08-.127.08-.145.17,0,.054,0,.157.045.171.067.086.208,0,.306.086h.017c-.017.057-.115.057-.115.115-.028.072.033.143.056.174a.319.319,0,0,0,.113.031l-.113.084.029.082a.579.579,0,0,0,.3.117v.014h.067a.374.374,0,0,0,.111.188h.015v.033a.467.467,0,0,1-.1.026.316.316,0,0,0-.124.139c0,.071.03.133.083.145.085.085.141.085.269.041.054.044.044.146.094.16.024,0,.024,0,.069.029,0,.072-.045.187,0,.285.044,0,.044.03.072.03a.783.783,0,0,0,.239-.215.146.146,0,0,1,.182.02c.013.008.013.008.013.053a.41.41,0,0,0-.054.217c.028.1.054.137.111.156a.221.221,0,0,0,.25-.033.138.138,0,0,0,.046-.141c0-.024,0-.057.011-.057.1-.055.226.057.285-.055.011,0,.011-.031.024-.031.042.031.115.056.142.031a.093.093,0,0,0,.072-.031H44.8c0,.056.043.086.07.119,0,.024-.05.024-.041.1.014.013.057.019.073.04.347-.027.506-.3.854-.358h.083V22.4h-.041c-.013,0,0,0,0,.014L45.71,22.4c.042.014.042,0,.042.014-.042.028-.042,0-.059,0v.028h.017c0,.014-.024,0-.024,0l-.017.014c-.028,0-.04.031-.04,0v.031h-.021v.055h-.024l-.066.033h-.034c.015,0,.015,0,0,.024h-.037c-.016.019-.041,0-.041,0v.019h-.032c-.069.057-.167,0-.225.057l-.054.066c0,.033.043.033.054.074Z" transform="translate(-7.797 -3.43)" fill="#050605" fill-rule="evenodd"/>
    <rect id="Rectangle_44" data-name="Rectangle 44" width="0.004" height="0.013" transform="translate(34.638 16.174)" fill="#050605"/>
    <path id="Path_202" data-name="Path 202" d="M44.889,22.731h.051v-.045a.02.02,0,0,1,.02.02l.012-.02H44.96l.012-.028L44.96,22.6h-.02l-.04-.017V22.6c-.041,0-.041.083-.011.128m-.224-.072h.024v-.016H44.7l.016-.039.015.039c0-.039,0-.039-.015-.039h.036s-.021,0-.021-.017h.021c.02-.013,0-.013,0-.038s0-.02.02-.02c-.085.02-.154-.081-.267-.1v.02c.016.069.072.14.088.2Zm-1.195.072h0a.959.959,0,0,0,.217-.2,1.027,1.027,0,0,0-.217-.056.509.509,0,0,0-.028.215.251.251,0,0,1,.028.045m-.586-1.1h.026c0-.086.057-.143,0-.215a.363.363,0,0,0-.209.1l.015.029a.216.216,0,0,0,.167.086m-1-1.837.089-.163a.222.222,0,0,0-.172-.052.179.179,0,0,0-.057.012.268.268,0,0,0,.033.1.727.727,0,0,0,.108.1" transform="translate(-7.81 -3.662)" fill="#cc974b" fill-rule="evenodd"/>
    <path id="Path_203" data-name="Path 203" d="M47.252,23.569h0l.156-.031v-.061c-.041-.053-.111-.023-.156-.023-.024.058-.057.058-.066.058Zm-.432.146h0c.1,0,.237,0,.293-.074v-.057a.41.41,0,0,0-.278.057c-.015.025-.029.045-.045.045.015.01.029.01.029.029m-.925.026h0a.451.451,0,0,0,.267-.046.283.283,0,0,0-.185-.054.239.239,0,0,1-.083.011.445.445,0,0,0-.012.063l.012.014Zm-.239-.089.127-.011v-.057a.345.345,0,0,0-.179,0h-.036a.129.129,0,0,0,.088.068" transform="translate(-8.526 -4.386)" fill="#b19472" fill-rule="evenodd"/>
    <path id="Path_204" data-name="Path 204" d="M45.8,23.445h-.113l.444-.246v-.013c.021,0,.021-.013.048,0,.067,0,.085-.044.125-.072a.258.258,0,0,1,.072-.027.115.115,0,0,1,.056.044H46.38v.011l-.072.031v.013h-.04l-.018.013h-.067v.044h-.027c-.021,0-.021,0-.021.016H46.1v.028s-.028-.028-.028,0h-.031V23.3h-.014c-.024.031,0,.031,0,.031-.024.023-.024,0-.067,0v.023h-.015c0,.034,0,.034-.028.034l-.081.027s.011,0,.011.031H45.8Zm.293-.315h.037l-.037-.146a.328.328,0,0,0-.183-.058v.033c-.016,0-.016,0,0,.025V22.96c.028.025,0,.025,0,.041.028.024.028,0,.028,0h.015l-.015.046.015-.021S45.958,23,46,23v.072c0-.026,0-.026.024-.026h.014v0h.019l-.019.026c.019.014.019-.026.031,0,0,0,0,.014-.012.014l.012-.014.028.014-.041.027c.012.017.012-.012.041-.012l-.028.029.028.011Zm.66-.146h0c.025,0,.025-.025.041-.025,0-.033.013-.033.041-.033h.016l.027-.027c.015,0,.043-.059.086-.02l.014.02.012-.02v-.039l.041-.028c0-.03-.041-.03-.067-.03a.517.517,0,0,0-.17.143h-.057Zm.487.345h-.011c.011,0,.011,0,.011-.031l-.026.031V23.3h-.1c0-.013.011-.013.011-.013h-.011l-.014-.028-.04.028h-.015c0-.028-.018,0-.018,0v-.028h-.03l.03-.016h-.053c.012,0,.012,0,0-.044,0,0,0,.044-.014.044-.03-.044,0-.044,0-.044l-.071.044c0-.044.028-.044.028-.044h-.07v-.013a.158.158,0,0,1,.083-.013,2.355,2.355,0,0,1,.38.114Zm-.5.13.086-.015-.029.015.1-.015h.155a1.1,1.1,0,0,0-.392-.159.086.086,0,0,0-.072.044h.038l-.026.057.042-.034s.017,0,0,.034h-.016c-.01,0-.01,0-.026.027l.085-.027h.033l-.059.058c.025,0,.08-.031.122-.031l-.1.046.153-.046v.031a.274.274,0,0,0-.119.015Z" transform="translate(-8.548 -4.263)" fill="#66514b" fill-rule="evenodd"/>
    <path id="Path_205" data-name="Path 205" d="M46.782,23.55l.01-.02c-.01,0-.01.02-.023.02Z" transform="translate(-8.75 -4.402)" fill="#fff" fill-rule="evenodd"/>
    <path id="Path_206" data-name="Path 206" d="M46.8,23.28l.02-.022Z" transform="translate(-8.756 -4.351)" fill="#fff" fill-rule="evenodd"/>
    <path id="Path_207" data-name="Path 207" d="M46.181,23.2a.01.01,0,0,0,.01-.01Z" transform="translate(-8.64 -4.339)" fill="#fff" fill-rule="evenodd"/>
    <path id="Path_208" data-name="Path 208" d="M45.676,23.124h0Z" transform="translate(-8.546 -4.326)" fill="#fff" fill-rule="evenodd"/>
    <path id="Path_209" data-name="Path 209" d="M48.184,23.076h0Z" transform="translate(-9.015 -4.317)" fill="#fff" fill-rule="evenodd"/>
    <path id="Path_210" data-name="Path 210" d="M47.654,23.075h0s0-.012,0,0" transform="translate(-8.916 -4.316)" fill="#fff" fill-rule="evenodd"/>
    <path id="Path_211" data-name="Path 211" d="M45.582,22.907h.012l-.012-.035Z" transform="translate(-8.528 -4.279)" fill="#050605" fill-rule="evenodd"/>
    <path id="Path_212" data-name="Path 212" d="M45.652,22.881v-.013s-.02-.018-.032-.018c-.015.018.012.018.032.031" transform="translate(-8.535 -4.275)" fill="#050605" fill-rule="evenodd"/>
    <path id="Path_213" data-name="Path 213" d="M44.262,22.743s.007,0,0-.007Z" transform="translate(-8.281 -4.254)" fill="#050605" fill-rule="evenodd"/>
    <path id="Path_214" data-name="Path 214" d="M44.344,22.731v-.025c0-.01-.015.025-.026,0Z" transform="translate(-8.292 -4.248)" fill="#050605" fill-rule="evenodd"/>
    <path id="Path_215" data-name="Path 215" d="M44.529,22.669h.021v-.02l-.033.02Z" transform="translate(-8.329 -4.237)" fill="#fff" fill-rule="evenodd"/>
    <path id="Path_216" data-name="Path 216" d="M44.4,22.638h.011V22.63c0-.024,0-.024.02-.024s-.02,0,0-.011v-.011h-.02Z" transform="translate(-8.308 -4.225)" fill="#050605" fill-rule="evenodd"/>
    <path id="Path_217" data-name="Path 217" d="M44.5,22.608V22.6s-.01-.014-.01,0Z" transform="translate(-8.323 -4.227)" fill="#050605" fill-rule="evenodd"/>
    <path id="Path_218" data-name="Path 218" d="M44.307,22.552h.024c0-.02-.024,0-.024,0" transform="translate(-8.29 -4.218)" fill="#050605" fill-rule="evenodd"/>
    <path id="Path_219" data-name="Path 219" d="M44.77,22.506h.007c0-.01-.007-.01-.007-.01Z" transform="translate(-8.376 -4.209)" fill="#050605" fill-rule="evenodd"/>
    <path id="Path_220" data-name="Path 220" d="M44.9,22.506V22.5h-.032a.054.054,0,0,0,.032.01" transform="translate(-8.394 -4.209)" fill="#fff" fill-rule="evenodd"/>
    <path id="Path_221" data-name="Path 221" d="M45.719,22.5s0-.01.021-.01l0,.01c0-.01,0-.026-.024-.026-.01.016-.01.016-.01.026Z" transform="translate(-8.552 -4.205)" fill="#050605" fill-rule="evenodd"/>
    <path id="Path_222" data-name="Path 222" d="M44.828,22.425h0Z" transform="translate(-8.385 -4.195)" fill="#fff" fill-rule="evenodd"/>
    <path id="Path_223" data-name="Path 223" d="M48.9,22.34l.259-.072a.048.048,0,0,0-.011-.033,2.329,2.329,0,0,1-.337.07Z" transform="translate(-9.133 -4.16)" fill="#ffe800" fill-rule="evenodd"/>
    <path id="Path_224" data-name="Path 224" d="M45.765,22.291l.008-.011h-.008Z" transform="translate(-8.562 -4.168)" fill="#050605" fill-rule="evenodd"/>
    <path id="Path_225" data-name="Path 225" d="M46.557,22.235h.01c.014,0,.014-.01.014-.032h-.024c-.019,0,0,.022-.019.032Z" transform="translate(-8.707 -4.154)" fill="#fff" fill-rule="evenodd"/>
    <path id="Path_226" data-name="Path 226" d="M43.18,22.1h.027c.009,0,0-.01,0-.01Z" transform="translate(-8.079 -4.133)" fill="#fff" fill-rule="evenodd"/>
    <path id="Path_227" data-name="Path 227" d="M44.541,22.078h0v-.03s0-.015-.027-.015H44.5V21.99h-.024v.042h.039Zm-.066.053h0c0-.028.024,0,0-.028-.015,0,0,.028,0,.028m-.015-.043v-.04h-.03l-.011-.015.011-.042h-.011v.042H44.4v.046h.028c.03,0,0,.01.03.01" transform="translate(-8.307 -4.114)" fill="#fff" fill-rule="evenodd"/>
    <path id="Path_228" data-name="Path 228" d="M44.488,22.088l-.022-.046s0,.015-.02.015c0,.008.02,0,.02,0s.012.031.012.031,0,0,.01,0" transform="translate(-8.316 -4.124)" fill="#fff" fill-rule="evenodd"/>
    <path id="Path_229" data-name="Path 229" d="M49.279,22.021a.453.453,0,0,0,.28-.1l-.039-.029c-.1.05-.167.1-.252.133Z" transform="translate(-9.218 -4.095)" fill="#ffe800" fill-rule="evenodd"/>
    <path id="Path_230" data-name="Path 230" d="M49.662,21.746l.241-.1v-.012c-.071-.019-.117.053-.182.073-.033.011-.059.011-.07.024s0,.02.011.02" transform="translate(-9.29 -4.046)" fill="#ffe800" fill-rule="evenodd"/>
    <path id="Path_231" data-name="Path 231" d="M45.857,22.424h0l.1-.043c.024-.028.075-.1.024-.157a.127.127,0,0,0-.024-.058.347.347,0,0,1-.116-.143c0-.074.1-.085.08-.2-.023-.03-.08-.03-.123-.059-.067-.026-.084,0-.14,0h-.094c-.019,0-.028-.042-.072-.059-.013-.083,0-.156-.042-.185a.159.159,0,0,0-.159-.041,1.682,1.682,0,0,0-.291.2h.041c.059.027,0,.027,0,.027,0,.016.011.016,0,.033H45l-.014.038c0,.017.014-.012.014,0,.041.017,0,.017,0,.032a.044.044,0,0,1-.028-.015v.015l.028.015h-.014s.014,0,.014.046v.01c.185-.056.253-.158.393-.215l-.059.073-.14.085c.059.046.14,0,.225.046a.545.545,0,0,0,.185.01c.082,0,.151.045.237,0,0,.045-.043.057-.086.068s-.1-.011-.151-.011c.082.071.137.2.237.286h0c-.111-.025-.167-.2-.277-.275,0,.059.04.115,0,.217h-.019c.019-.1,0-.217-.066-.228a.5.5,0,0,0-.35-.046c.025.046.08.057.08.116,0,.015-.015.015-.015,0a.133.133,0,0,0-.141-.071l-.011.011h-.1v.059s.028,0,.028-.024c.015,0,.015.024.028.024a.014.014,0,0,1-.014.015h-.043l-.015-.015v.015s.015.031,0,.041-.011.063-.011.076v.025h.011c.015,0,0,0,0,.033l.044-.033V22.2h-.028l.057.025a.275.275,0,0,0,.209-.058c.044-.039.111-.1.141-.039a.014.014,0,0,1,.015.014c.067.025.067.171.115.227h.066c.059-.028.085-.1.141-.083.054.041.069.127.155.127,0,.012.016.012.016.012m-1.38-.283h0c-.024,0-.037-.014-.037-.06a.382.382,0,0,1-.114-.072l.011-.059a.391.391,0,0,0,.185-.14.145.145,0,0,0-.057-.1c-.068-.041-.2,0-.282.016-.037.016-.068-.016-.093-.016s-.014-.027-.043-.041c-.011,0-.041-.042-.041-.072.041-.044.11,0,.141-.044a.086.086,0,0,0,.068-.085c-.015-.088-.139-.115-.224-.142a.248.248,0,0,1-.071-.143l.014-.046v-.012c.016-.046.057-.059.1-.073.1.073.2.085.261.2.03,0,.1,0,.115-.015l.193.089c.016,0,.016.028,0,.054a.118.118,0,0,0,.043.088.185.185,0,0,0,.156-.031c.067-.016.124,0,.139.046a.2.2,0,0,1,.028.185c-.044.111-.088.2-.109.283a1.574,1.574,0,0,1-.1-.354c0-.044,0-.044-.015-.044v.215c-.026-.1-.142-.156-.225-.226l-.057-.215c0-.029-.013-.029-.013,0H44.44l.037.2a.853.853,0,0,1-.362-.341l-.011.007v.022a1.035,1.035,0,0,0,.336.341c-.043,0-.144,0-.181.044h0c.079.015.181-.044.276,0,.087.072.2.171.213.276h-.2c0,.01-.017.01-.017.01l.017.011c.1,0,.183-.011.237.046l.057.143Zm-.43.67h0a.2.2,0,0,0,.153-.043c.041-.084,0-.2.07-.241.1-.03.183.1.265.013.046-.043,0-.1-.012-.128s-.057-.072-.057-.127.046-.061.057-.086c.029,0,.1.025.126.025a.164.164,0,0,0,.115.088c.025-.027.025-.027.041-.027l.015-.045-.032-.041-.041-.033-.026.033h-.035l.035-.033h-.1l-.087.033c-.012,0-.012-.033-.012-.033s0,.033-.011.033l-.046-.033c-.025.033-.068,0-.068,0-.026,0-.026,0-.026-.025h-.045c-.057.025-.03.124,0,.2.011.028.011.1.045.141a.479.479,0,0,1-.1-.241,1.3,1.3,0,0,0-.18.444.722.722,0,0,1,.125-.419L44.2,22.24a.565.565,0,0,1-.124.1v-.015c.054-.085.183-.1.237-.2v-.046h.014l-.03-.058h-.027v-.015c.027,0,0-.059.016-.059H44.3l-.011-.024c.011-.033.027,0,.027-.033.014-.011-.016-.011-.016-.021l.041-.046h-.011v-.015l.011-.032H44.3l-.011-.012-.139.029c-.016.03,0,.03,0,.076l.093.078v.059c-.041.015-.057.046-.11.056a.534.534,0,0,0-.18.076.148.148,0,0,0-.151.083c-.021.061,0,.088.015.1.064.027.136.015.176.055.045.061.015.1,0,.146a.173.173,0,0,0-.057.172c0,.058.016.1.072.113Zm-.307-.458h0v-.088c0-.024.014-.041,0-.041H43.72V22.2c0-.033,0-.033.019-.033v.058c.014-.025.014-.025.038-.025-.038-.033-.057-.118-.14-.134-.082.016-.111.134-.163.159a.277.277,0,0,1-.116,0l-.027-.058a.279.279,0,0,0-.024-.1c-.043-.041-.115.016-.187.016-.081-.016-.111-.016-.125-.058-.051-.039,0-.1.015-.152s.082-.046.126-.046a.3.3,0,0,0,.128-.015.342.342,0,0,0,.012-.1c0-.041.012-.083.042-.083.069,0,.168.056.237,0a.148.148,0,0,0,.071-.131c0-.058.057-.074.113-.115.094,0,.194.1.251.172l-.028.044.028.029c-.028,0-.028.042-.028.042.028.014.028,0,.028,0l.015.041h.03v.016c-.03,0,0-.016-.03-.016h-.055c0,.016.013.016.013.033.028,0,.042-.033.042,0H43.99c-.112.026-.176-.073-.27-.13v.015l.113.115a1.049,1.049,0,0,0-.289.085c-.058-.015-.137-.085-.213-.085v.026l.2.059c-.12.067-.251,0-.336.1h.044c.1-.033.239,0,.309-.054-.017.054-.046.078-.115.137v.046c.1-.046.115-.162.2-.229a.625.625,0,0,1,.241-.03c-.045.03-.089.076-.128.1v.057a.576.576,0,0,0,.139-.14.1.1,0,0,1,.112-.015c.015,0,.056,0,.056.015l-.056.015.045.046h.011l.029.021a.045.045,0,0,1-.041.046c0,.011,0,.011.011.011h-.011v.035h.011v.024h-.011v-.024H43.99s-.028.024-.041.024h-.042l.012.015c.014.031.014,0,.03.031l-.016.011-.026-.011v.011h-.029v-.041l-.045.041-.011.016v.06c-.008,0-.024,0-.024.025h-.021c-.038.058-.024.119-.038.186m-.5-.645h0a.127.127,0,0,1,.072-.112l.011-.044s0,.044.013.044h.056v-.044h.041v-.011c0-.018.046.011.046,0v-.018h-.046l-.1-.041v-.015h.027l.169.015h.017c.011,0,.011,0,.011-.015h.028l-.028-.047h-.028v-.041h.017a.7.7,0,0,0-.115-.2l-.293-.1c.1-.021.183.037.272.037-.089-.147-.215-.276-.287-.406v-.01a.345.345,0,0,0,.072.059,1.881,1.881,0,0,1,.237.319c.046-.093,0-.194.058-.25a.624.624,0,0,0,.1.543h.1c0-.046,0,0-.046,0v-.027s0-.019.046-.019h.03l.026-.145v.136h.083v.009s-.008,0-.024.019l-.021-.019.13.086c0-.041,0-.041-.029-.041h-.045v-.027c0-.019.033-.019.045-.019l.029-.009c.012.009,0,.009,0,.028v.027h.026v-.046c-.014-.038-.014-.054-.026-.054v.015l-.029-.015v-.03h.029c0-.015,0-.015-.029-.015v-.018h.029l.012-.093a.228.228,0,0,0-.041-.131c-.08-.059-.158,0-.241,0-.054-.059-.054-.2-.111-.245l-.041-.015c-.058.015-.08.06-.155.041-.055-.041-.024-.185-.1-.2a.3.3,0,0,0-.2.014.432.432,0,0,0-.044.185c.015.063.031.075.085.075a.226.226,0,0,0,.055.086c0,.059,0,.1-.044.116H43.08l-.041.036c0,.131.225.163.164.293-.011.088-.083.1-.123.115,0,.028-.041.058-.041.058a.484.484,0,0,0,.153.156Zm-.406-.472h0a.444.444,0,0,1-.224-.111V21.05l.125-.058c0-.016.015-.016.015-.059a.458.458,0,0,0-.045-.086,1.144,1.144,0,0,0-.181-.012.227.227,0,0,1-.154-.043v-.119c0-.028.045-.043.058-.043.05-.042.1-.042.111-.124-.015-.106-.111-.117-.168-.2a.181.181,0,0,1,.058-.157c.028-.045.1-.045.137-.045.086.045.1.148.169.2h.015a.279.279,0,0,0,.136-.054l.031-.02a.375.375,0,0,1,.168.073.212.212,0,0,0,.055.085v.117H43.08v.012s0-.012-.041-.012l-.029.055.016.012-.016-.012c-.015,0-.015,0-.015.012h-.051v.014l-.032.058v0s-.031,0-.031.028c.031.033.031.043.031.059.032,0,.032-.025.032-.015l-.032.015-.031-.025-.025-.145v-.218h-.027a1.36,1.36,0,0,0-.019.286,3.929,3.929,0,0,1-.337-.43,1.744,1.744,0,0,0,.337.473l-.276-.028v.028a.546.546,0,0,0,.211.059c.039-.015.065,0,.111,0l.056.041v.063s.032-.043.032,0l-.032.012h.032l-.032.044v.042h.032v.042h-.032v.016h.032c0,.042,0,.042.051.058-.051,0,0,.015-.051,0v.036a.273.273,0,0,0,.066-.008v.008h-.015l-.083.1.032.022s0,.007-.032.024Zm-.5-1.121h.028c0-.011.012-.011,0-.011h-.02c-.039,0-.063-.075-.107-.1h.031c.014,0,.014.01.014.024h.042V20h.053c-.012,0-.012.01-.012.01l-.028.046h.008l.033.028c.028-.028,0-.028,0-.06v-.014c.028-.01.028,0,.045,0s.013-.01.013-.01v.01h.028L42.423,20l.028-.03h-.028v-.058c0-.015-.03,0-.058-.015,0-.015.028-.015.028-.041l.03.027v.03c.028,0,.028-.015.05-.015v.015c.046,0,.046,0,.046.015,0-.015-.046-.03-.046-.045a.076.076,0,0,0-.05.015V19.86l-.058-.089.058.028.05-.028h-.022c-.028,0-.028,0-.028-.011v-.031h.05a.721.721,0,0,0-.3-.432h.01a.384.384,0,0,1,.185.157.516.516,0,0,0-.1-.225,2.9,2.9,0,0,1-.159-.3h0a1.956,1.956,0,0,1,.311.538v-.053c-.07-.172-.153-.375-.226-.585h-.016c-.069-.016-.069-.116-.154-.116h-.1a.393.393,0,0,0,0,.2c0,.049.071.09.1.119.014.011.042.056,0,.129-.029.028-.1.028-.109.085,0,0,0,.054.009.054.088.117.254.17.225.332-.041.1-.125.141-.083.231.042.072.042.145.111.168h.045c.031,0,0,.032,0,.06h.045V20.1Zm.459.137v-.02h-.039V20.2c0-.011.039-.011.039-.011v-.028h.045s0-.014.027-.014l.025.014c0-.014-.025-.014-.025-.048V20.1c0-.015-.046-.015-.046-.043s0,0,.019,0c-.045-.085-.1-.173-.169-.289-.013.028-.055.028-.055.072a.145.145,0,0,0,.071.145c.025.017.054.017.07.027,0,.089-.07.147,0,.217Z" transform="translate(-7.842 -3.501)" fill="#209d47" fill-rule="evenodd"/>
    <rect id="Rectangle_45" data-name="Rectangle 45" width="0.021" height="0.013" transform="translate(34.854 16.627)" fill="#050605"/>
    <path id="Path_232" data-name="Path 232" d="M46.741,21.718h0c-.017,0-.017,0-.017-.041s-.042-.074-.083-.132h.041a.342.342,0,0,1,.161-.018l.011.018c-.011.058-.011.1-.029.118s-.041.054-.083.054m.1.145h0c-.019,0-.019-.031-.032-.031l-.041-.057a.947.947,0,0,1,.352-.247c-.1.118-.18.231-.279.335m1.679.671h0l.086-.041s-.03-.013-.03,0h-.044c-.012,0-.012,0-.042.041Zm-.684.287h0a.928.928,0,0,0,.322-.068v-.018h-.072c0,.018-.056,0-.056,0h-.016Zm1.047-1.549H48.8v-.028a.145.145,0,0,1,.023-.129.514.514,0,0,1,.216-.01,1.722,1.722,0,0,0,.224,0h.071l-.026.01a.422.422,0,0,0-.118.075.483.483,0,0,1-.307.083m-.2.2h.129a1.642,1.642,0,0,0,.239-.143c-.115.015-.254-.028-.412-.028h-.036a.094.094,0,0,0-.03.1c0,.026.03.026.03.026.024.041.036.041.08.041m-.289.2h-.044a.086.086,0,0,1-.1-.074c-.015-.016.011-.076.054-.084.18-.087.376.008.546.008a.683.683,0,0,1-.46.15m-.352.2h0a2.773,2.773,0,0,0,.308-.011.643.643,0,0,0,.208-.088,2.651,2.651,0,0,1-.4-.111.257.257,0,0,0-.183.054c-.06,0-.072.057-.06.131.031,0,.031.014.031.014Zm-.311.2h0a.072.072,0,0,1-.057-.015.168.168,0,0,1-.11-.058.19.19,0,0,1,.041-.13,1.617,1.617,0,0,1,.617.073c.016.034.1.034.156.034a.437.437,0,0,1-.156.023,1.492,1.492,0,0,1-.491.073m-.324.218h0a2.472,2.472,0,0,0,.6-.076.325.325,0,0,0,.2-.085,2.444,2.444,0,0,1-.857-.072c-.053,0-.1.015-.1.072,0,.085,0,.113.031.139a.245.245,0,0,1,.124.022m.845.386h0a6.7,6.7,0,0,1-.7-.189c-.124-.058-.239-.088-.332-.128l-.144-.027-.041-.02-.015.02h-.03l-.013.053h-.037c-.02.014,0,.028-.02.028v-.042l.185-.129.044.026.015.022h.028l.028.022v.02h.027a.065.065,0,0,0,.01-.042c.031,0,.031.042.045.042h.042c.011,0,.043,0,.052.027.015,0,.033,0,.033-.027l.069.039c0-.012.04,0,.054-.012s.016,0,.016-.027c0,0,0,.027.041.027.228.04.489.07.745.1l-.085.217Zm-.13-.277h.48a.388.388,0,0,0,.122-.014l.111-.171c-.163,0-.363.028-.541.028-.031,0,0,.026-.031.026-.011.022-.011,0-.011,0h-.015c-.016,0,0,0,0,.022l-.016-.022h-.043v.044l-.024-.044h-.032c-.012,0-.012.022-.012.044l-.085.02h-.043l-.041.039Zm.293-.285h-.066c.066-.041.137-.011.208-.057l-.028-.023a.905.905,0,0,1-.406.038.263.263,0,0,1,.1-.015c.193-.145.406,0,.59-.023a1.7,1.7,0,0,1-.4.08m.188-.188h0a1.346,1.346,0,0,0,.612-.213h-.04a1.856,1.856,0,0,0-.8.156c.015.043.068.043.1.043.142-.043.224-.054.338-.1h.024c0,.029-.024.029-.024.043a1.588,1.588,0,0,0-.239.068Zm.333-.267h0a1.255,1.255,0,0,1,.239-.06c.085-.076.2-.084.276-.171-.021,0-.039.041-.1,0-.065.041-.141,0-.221,0L48.8,21.6c.015.042.04.06.057.042.083,0,.171-.073.239-.1l.011.027Zm.311-.276h0a.826.826,0,0,0,.25-.084.443.443,0,0,0,.264-.2.8.8,0,0,1-.35.067c-.081.09-.225.1-.277.174,0,.03.025.03.052.03.028-.03.042-.072.061-.072H49.3l-.076.072c0,.011.014,0,.033.011m.182-.283h-.018c.039-.058.086-.058.115-.074.028-.045.082-.045.1-.086l-.211.1v-.016c.039-.045.158-.086.211-.143v-.043c.028-.016.041-.029.041-.057s-.029-.015-.029-.028c.029-.076.127-.12.139-.2h-.012l-.111.083v-.012c.111-.128.28-.088.436-.128.042,0,.042-.058.056-.058-.056.1-.1.176-.166.2-.09.086-.159.148-.242.148l.14-.148-.18.133v.015c0,.011-.03.041-.044.057,0,0-.028,0,0,.043a2.176,2.176,0,0,0,.28-.072,4.5,4.5,0,0,1-.361.289Zm-2.513,1.088h0a.211.211,0,0,0,.115-.13,2.015,2.015,0,0,1,.36-.542,1.042,1.042,0,0,0-.585.519.079.079,0,0,0,.013.08.238.238,0,0,0,.1.073m.327-.115h0c-.027-.015-.055-.015-.072-.038a.24.24,0,0,1-.011-.092.959.959,0,0,1,.473-.515.988.988,0,0,0-.241.441c-.041.073-.052.188-.149.2m.29-.2h0a.2.2,0,0,0,.17-.08c.081-.116.081-.319.2-.448a1.248,1.248,0,0,0-.406.372.1.1,0,0,0,0,.145c0,.011.033.011.04.011m.378-.2h0c-.011,0-.026-.014-.041-.032a.222.222,0,0,1,.03-.213,1.414,1.414,0,0,1,.322-.244c-.067.1-.1.285-.18.4a.119.119,0,0,1-.13.09m.311-.15h0c.016-.008.085-.008.1-.054.072-.143.072-.343.166-.428h0a.95.95,0,0,0-.332.386.133.133,0,0,1,.024.087Zm.265-.2h0l-.013-.028c-.028-.018-.028-.041-.028-.115.071-.085.17-.2.237-.289a.2.2,0,0,1-.044.131.585.585,0,0,1-.036.255.25.25,0,0,1-.116.046m.221-.192h0l.1-.025c.041-.084.041-.227.1-.354a.452.452,0,0,0-.227.325c0,.02.015.029.015.054Zm.271-.154h0c-.031,0-.042,0-.042-.041-.027-.045,0-.116.011-.157a.87.87,0,0,1,.2-.231c-.071.083-.056.241-.071.343-.027.045-.054.086-.1.086m.17-.171h0c-.014,0-.014-.017-.014-.017v-.159a3.261,3.261,0,0,1,.363-.427l.125-.1c-.015-.03-.015-.03-.044-.03l-.053.072a.266.266,0,0,1,.053-.146c.044-.072.072-.158.115-.185a1.456,1.456,0,0,0-.016.259.363.363,0,0,1-.152.2l-.028-.043a.916.916,0,0,0-.25.517c-.033.028-.061.068-.1.055m.263-.176h0c-.015,0-.056,0-.056-.012s-.011-.01-.011-.056.011-.072.067-.13a.976.976,0,0,0,.436-.38c-.113.152-.212.339-.31.5a.136.136,0,0,1-.126.083m-.277.407h0a.766.766,0,0,0,.445-.159c-.081-.043-.183.012-.275,0H49.4c.141-.1.227-.316.349-.389l.057-.058c.046.058.1.058.2,0a.708.708,0,0,0,.239-.358.767.767,0,0,1-.363.172c-.027.05-.072.058-.072.145,0,.041-.124.115-.167.172-.109.13-.331.068-.42.244v.029l.076.043h-.043a.253.253,0,0,0-.17.057l-.042.041c0,.045.015.045.015.061Zm.9-.892h0a.08.08,0,0,1-.073-.041.116.116,0,0,1,.02-.085c.067-.115.246-.071.343-.176a1,1,0,0,1-.163.232.181.181,0,0,1-.126.072m.126-.273h0a.39.39,0,0,0,.163-.184c.03-.092.059-.145.089-.247-.089.1-.185.155-.266.247a1.244,1.244,0,0,0-.056.127.231.231,0,0,1,.07.057m.067-.3h0a.328.328,0,0,0,.127-.244,1.235,1.235,0,0,0,0-.33,2.738,2.738,0,0,0-.193.391.209.209,0,0,0,.026.154Zm-.193.146h0c-.033,0-.033-.017-.033-.046-.041-.128.046-.272.089-.389-.043.129.07.3-.043.418Zm-.213.3c.03,0,.03,0,.03-.019l.053-.072v.02c.057-.076.03-.133,0-.229a.983.983,0,0,1,0-.277,1.919,1.919,0,0,1-.166.374.392.392,0,0,0,.028.185c.012.019.055,0,.055.019" transform="translate(-8.726 -3.556)" fill="#ffe700" fill-rule="evenodd"/>
    <path id="Path_233" data-name="Path 233" d="M43.04,21.287h.024l.007-.013s-.031,0-.041.013Z" transform="translate(-8.051 -3.98)" fill="#050605" fill-rule="evenodd"/>
    <path id="Path_234" data-name="Path 234" d="M43.04,21.246h.024c-.024-.009-.024-.009-.034-.009Z" transform="translate(-8.051 -3.973)" fill="#050605" fill-rule="evenodd"/>
    <path id="Path_235" data-name="Path 235" d="M43.633,21.088c0-.015-.007-.024-.007-.048s.007-.01.007-.01c0-.019.019-.019,0-.033l-.037.033c0,.01.029.01.029.043l-.027.015h0c0,.013.029-.015.037,0h0" transform="translate(-8.157 -3.928)" fill="#fff" fill-rule="evenodd"/>
    <path id="Path_236" data-name="Path 236" d="M43.663,21.071h.012v-.032l-.012.008Z" transform="translate(-8.169 -3.936)" fill="#fff" fill-rule="evenodd"/>
    <path id="Path_237" data-name="Path 237" d="M43.473,20.925l-.015-.007h0s0,.007.015.007" transform="translate(-8.129 -3.914)" fill="#fff" fill-rule="evenodd"/>
    <path id="Path_238" data-name="Path 238" d="M48.547,20.543h0l.019-.028.067-.084-.1.111Zm.158-.111h-.015l.11-.146s-.013.033,0,.046c-.013.028-.04.089-.094.1m.081.13h0l.223-.288c-.052.085-.2.172-.223.288m-.2.4h0l.174-.083v-.063Zm-1.508,1.275h.153c-.013-.043-.086-.043-.124-.013h-.073c.011.013.044.013.044.013m.323-.2h.085c-.028-.046-.113-.046-.128,0Zm-4.05-1.282h0c-.015-.015-.015-.024-.024-.07l-.031-.014h-.015v.059c.015.024.046,0,.054,0v.024Zm.167.951h.03a.015.015,0,0,0-.03,0m-.487-.112h.024c0-.049-.013-.049-.024-.049h-.017Zm.011-.1h.013c0-.046-.013-.074-.024-.074h-.017v.028a.07.07,0,0,1,.017.046Zm.06.055h0l-.047-.048.047-.007c.011.007.035.007.035.028-.024.028-.024.028-.035.028m.05-.055h0c0-.03,0-.03-.015-.046v.015c0,.03,0,.03.015.03m.054.055h0l-.054-.028h.054Zm-.054.055h0V21.6s0-.049-.015-.049V21.6s0,.007.015.007m-.05.045h0l.011-.015s-.011,0-.011-.03c0,0-.047,0-.047.03Zm.641.861h0v-.054H43.7c0,.04.031.04.045.067Zm-.1-.174h.016c.041,0,0,0,0-.027h-.016Zm-.07.033h0c.029,0,.029,0,.029-.033a.03.03,0,0,0-.029.033m.029.087h0c0-.044-.029-.062,0-.062h.015c0,.018.026.043,0,.062Zm-.053,0h0s.012,0,.012-.019l-.012-.043v.062Zm1.666.2h0l.1-.057-.1-.072-.012.129Zm-.1-.1h0v-.012c.029,0,0,0,0-.016-.041,0-.041,0-.041.016.041,0,.041,0,.041.012m-.041-.055h.041v-.04s-.041,0-.041.026Zm.7-.644h0c.041,0,.041,0,.041-.016,0-.041,0-.041-.041,0Zm-.028-.131h.016c0-.011-.016-.029-.016-.029h-.011v.029Zm-.07.073h.016v-.028H45.65v.028Zm0,.082h0l.016-.024v-.016H45.65v.016Zm.07-.024h0v-.016c0-.041,0-.041-.011,0v.016Zm-.166.024h.04v-.024c-.04.024-.04,0-.054.024Zm-1.921.561h0l.041-.025c.031-.018,0-.018,0-.043h-.041c-.016.025,0,.025,0,.068m.45-.839h0s0-.049-.014-.049V21.6Zm-1.573-1.65h0v-.121c-.04-.056-.1-.114-.04-.2l.04.089V19.8c0,.014,0,.046.02.046V19.9Zm-.04.064h0l.04-.042v-.022h-.04v.022c0,.029-.026.029,0,.042m-.461-.313h.014v-.026c-.014,0-.014,0-.014.026m.084.072h0v-.041h-.028l.013.041Zm-.07,0h0v-.041h-.014Zm.015.074h0c.027,0,.027,0,.027-.018v-.014h-.041v.032Zm-.041,0h.012l-.012-.032L41.99,19.8v.046Z" transform="translate(-7.856 -3.671)" fill="#fff" fill-rule="evenodd"/>
    <path id="Path_239" data-name="Path 239" d="M45.78,13.383h0A3.419,3.419,0,1,0,49.2,16.8a3.429,3.429,0,0,0-3.417-3.417m-.007-.258A3.678,3.678,0,1,1,42.1,16.8a3.684,3.684,0,0,1,3.678-3.676" transform="translate(-7.876 -2.455)" fill="#cc974b" fill-rule="evenodd"/>
    <path id="Path_240" data-name="Path 240" d="M45.937,13.957a3,3,0,1,1-3,3,3.007,3.007,0,0,1,3-3" transform="translate(-8.033 -2.611)" fill="#004089" fill-rule="evenodd"/>
    <path id="Path_241" data-name="Path 241" d="M45.817,13.3a3.535,3.535,0,1,1-3.543,3.536A3.536,3.536,0,0,1,45.817,13.3" transform="translate(-7.909 -2.487)" fill="#0083b7" fill-rule="evenodd"/>
    <path id="Path_242" data-name="Path 242" d="M46.075,14.7a2.4,2.4,0,1,1-2.4,2.4,2.4,2.4,0,0,1,2.4-2.4" transform="translate(-8.171 -2.75)" fill="#e50019" fill-rule="evenodd"/>
    <path id="Path_243" data-name="Path 243" d="M45.944,14.031a2.939,2.939,0,1,1-2.938,2.941,2.946,2.946,0,0,1,2.938-2.941" transform="translate(-8.046 -2.625)" fill="#d6001a" fill-rule="evenodd"/>
    <path id="Path_244" data-name="Path 244" d="M46.086,14.751A2.354,2.354,0,1,1,43.73,17.1a2.353,2.353,0,0,1,2.356-2.353" transform="translate(-8.182 -2.76)" fill="#209d47" fill-rule="evenodd"/>
    <path id="Path_245" data-name="Path 245" d="M46.537,15.066l1.766-.732-.732,1.775,1.772.723-1.772.735.732,1.767L46.536,18.6l-.731,1.767-.73-1.767-1.77.731.731-1.767-1.768-.735,1.768-.723-.731-1.775,1.766.732.734-1.77Z" transform="translate(-7.908 -2.488)" fill="#cc974b" fill-rule="evenodd"/>
    <path id="Path_246" data-name="Path 246" d="M46.558,15.5l1.465-.6-.611,1.471,1.475.6-1.475.612.611,1.466-1.47-.606-.6,1.468-.612-1.468-1.469.606.606-1.466-1.464-.612,1.464-.6L43.87,14.9l1.467.6.614-1.468Z" transform="translate(-8.047 -2.625)" fill="#fff" fill-rule="evenodd"/>
    <path id="Path_247" data-name="Path 247" d="M46.557,15.587l1.406-.578-.583,1.409L48.793,17l-1.412.583.583,1.408-1.409-.579-.577,1.407-.586-1.407-1.409.579.585-1.408L43.153,17l1.415-.578-.585-1.409,1.4.578.591-1.413Z" transform="translate(-8.074 -2.652)" fill="#fff" fill-rule="evenodd"/>
    <path id="Path_248" data-name="Path 248" d="M46.331,18.609h0a1.183,1.183,0,0,0-.146-.042,1.187,1.187,0,0,1-.373-.833h-.028a.947.947,0,0,0,.057.444,1.4,1.4,0,0,1-.171-.415,1.466,1.466,0,0,1,.215-.889v.2c.037.371,0,.843.286,1.117.013,0,.041,0,.041-.018,0-.169-.112-.3-.143-.483a3.491,3.491,0,0,1-.1-.393,1.633,1.633,0,0,1,.333-1.13v.085a1.342,1.342,0,0,0,.027.347.571.571,0,0,1,.024.184,5.31,5.31,0,0,0,.134.53,1.249,1.249,0,0,1,.042.215c.07.259-.1.563-.032.749a.129.129,0,0,0,.1.041v-.075c.217-.8-.516-1.645-.1-2.451-.011.517.319.875.432,1.348a1.718,1.718,0,0,1,.033,1.1.657.657,0,0,1-.2.33c-.072.011-.16.011-.172-.041-.1,0-.156.089-.258.071m.584-.158a1.354,1.354,0,0,0,.434-.718c.14-.689-.371-1.13-.631-1.562.042.5.4.906.371,1.416a1.358,1.358,0,0,1-.159.808.136.136,0,0,0-.015.055" transform="translate(-8.544 -2.956)" fill="#d6001a" fill-rule="evenodd"/>
    <path id="Path_249" data-name="Path 249" d="M48.317,21.3a.143.143,0,0,1-.145.139.137.137,0,0,1-.132-.139.134.134,0,0,1,.132-.135.141.141,0,0,1,.145.135" transform="translate(-8.988 -3.96)" fill="#cc974b" fill-rule="evenodd"/>
    <path id="Path_250" data-name="Path 250" d="M50.423,19.145a.137.137,0,1,1-.275,0,.133.133,0,0,1,.137-.135.134.134,0,0,1,.138.135" transform="translate(-9.383 -3.557)" fill="#cc974b" fill-rule="evenodd"/>
    <path id="Path_251" data-name="Path 251" d="M50.423,16.129a.136.136,0,0,1-.138.132.135.135,0,0,1-.137-.132.138.138,0,1,1,.275,0" transform="translate(-9.383 -2.99)" fill="#cc974b" fill-rule="evenodd"/>
    <path id="Path_252" data-name="Path 252" d="M48.265,13.927a.137.137,0,0,1-.137.14.135.135,0,0,1-.136-.14.133.133,0,0,1,.136-.132.136.136,0,0,1,.137.132" transform="translate(-8.979 -2.581)" fill="#cc974b" fill-rule="evenodd"/>
    <path id="Path_253" data-name="Path 253" d="M45.153,13.927a.137.137,0,0,1-.137.14.136.136,0,0,1-.135-.14.134.134,0,0,1,.135-.132.136.136,0,0,1,.137.132" transform="translate(-8.397 -2.581)" fill="#cc974b" fill-rule="evenodd"/>
    <path id="Path_254" data-name="Path 254" d="M43.039,16.129a.139.139,0,0,1-.135.132.137.137,0,0,1-.141-.132.143.143,0,0,1,.141-.145.146.146,0,0,1,.135.145" transform="translate(-8.001 -2.99)" fill="#cc974b" fill-rule="evenodd"/>
    <path id="Path_255" data-name="Path 255" d="M43.039,19.145a.143.143,0,0,1-.135.14.141.141,0,0,1-.141-.14.135.135,0,0,1,.141-.135.137.137,0,0,1,.135.135" transform="translate(-8.001 -3.557)" fill="#cc974b" fill-rule="evenodd"/>
    <path id="Path_256" data-name="Path 256" d="M45.153,21.3a.138.138,0,0,1-.137.139.137.137,0,0,1-.135-.139.135.135,0,0,1,.135-.135.136.136,0,0,1,.137.135" transform="translate(-8.397 -3.96)" fill="#cc974b" fill-rule="evenodd"/>
    <path id="Path_257" data-name="Path 257" d="M3.239,45.032,3,44.5H1.288l-.349.765c-.117.267.117.4.276.462V45.8H0v-.074c.138-.049.34-.142.532-.555l1.379-3c-.02-.115-.25-.193-.312-.2V41.9h.882l1.5,3.306a.924.924,0,0,0,.528.519V45.8H3.049v-.074c.134-.053.391-.194.289-.457-.031-.077-.065-.151-.1-.237m-1.788-.884H2.844l-.686-1.561ZM5.008,42.4h.038c.032.076.12.076.178.076H7.611v.313L5.484,45.509H7.149c.2,0,.384-.171.5-.46h.044l-.134.75H4.789v-.282L6.914,42.8h-1.6c-.14,0-.272.21-.331.411H4.939Zm6.834.55c0-.267-.086-.347-.254-.411v-.063h1.782c.715,0,1.065.4,1.065.9s-.363.9-1.075.9l.931,1.107a1.178,1.178,0,0,0,.43.347V45.8h-.776l-1.437-1.727V44h.781a.559.559,0,0,0,.548-.616.55.55,0,0,0-.548-.607h-.767c-.1,0-.161,0-.161.156v2.409c0,.256.082.338.251.4V45.8H11.589v-.063c.167-.059.254-.141.254-.4Zm3.4,2.848v-.063c.164-.059.251-.141.251-.4V42.952c0-.267-.087-.347-.251-.411v-.063h1.89c.454,0,1.03.138,1.03.825a.87.87,0,0,1-.3.671.9.9,0,0,1,.539.855,1.028,1.028,0,0,1-1.149.97Zm.775-3.026v1.1h1.064a.493.493,0,0,0,.54-.558c0-.478-.308-.545-.562-.545Zm0,2.641c0,.046.037.085.067.085h1.133a.6.6,0,0,0,.579-.669c0-.335-.174-.659-.519-.659h-1.26Zm5.344-.266-.2-.455H19.7l-.3.65c-.1.228.1.345.237.393V45.8H18.6v-.063c.122-.041.291-.12.458-.473l1.171-2.552c-.014-.1-.211-.165-.265-.17v-.063h.75L22,45.294a.765.765,0,0,0,.452.442V45.8H21.2v-.063c.112-.043.331-.166.245-.388-.025-.067-.054-.128-.084-.2m-1.522-.755h1.185l-.584-1.33Zm4.194-.094v1.12a.323.323,0,0,0,.254.317V45.8H23.258v-.063a.314.314,0,0,0,.258-.312v-.991l-1.126-1.57a.68.68,0,0,0-.376-.322v-.063H23.1v.063c-.1.032-.235.093-.115.259l.849,1.2.928-1.195c.12-.156,0-.237-.127-.263v-.063h.9v.063a.4.4,0,0,0-.272.174Zm3.376,1.286a1.159,1.159,0,0,0,1.132-.755h.046l-.063.68a2.3,2.3,0,0,1-1.2.37,1.744,1.744,0,1,1,0-3.481,2.632,2.632,0,0,1,1.114.254.326.326,0,0,0,.049-.027h.039l-.059.736H28.43a1,1,0,0,0-1.018-.67,1.451,1.451,0,0,0,0,2.892m4.156-.437-.2-.455H29.908l-.3.65c-.1.228.1.345.237.393V45.8H28.808v-.063c.121-.041.293-.12.457-.473l1.172-2.552c-.017-.1-.212-.165-.266-.17v-.063h.751L32.2,45.294a.779.779,0,0,0,.449.442V45.8H31.4v-.063c.115-.043.334-.166.245-.388-.024-.067-.054-.128-.08-.2m-1.521-.755h1.184l-.585-1.33ZM36.2,45.8H35.83l-2.3-2.67v2.245a.337.337,0,0,0,.251.361V45.8h-.85v-.063a.333.333,0,0,0,.256-.361V42.889a.354.354,0,0,0-.256-.348v-.063h.777l2.15,2.472V42.907a.343.343,0,0,0-.255-.365v-.063h.848v.063a.339.339,0,0,0-.249.365Zm2.474-3.343c0-.315-.1-.409-.3-.482V41.9H40.47c.843,0,1.253.467,1.253,1.059s-.427,1.058-1.264,1.058l1.093,1.3a1.388,1.388,0,0,0,.506.41V45.8h-.91l-1.688-2.029v-.089h.916a.658.658,0,0,0,.646-.723.646.646,0,0,0-.646-.712h-.9c-.109,0-.183,0-.183.182v2.831c0,.3.1.4.293.465V45.8h-1.2v-.074c.2-.068.3-.167.3-.465Zm4.725.317v1.179h1.032c.124,0,.174-.143.21-.345h.045l-.064.959h-.039c-.02-.146-.051-.32-.151-.32H43.4V45.41c0,.063.033.1.072.1h1.295c.245,0,.394-.267.449-.46h.047l-.147.75h-2.5v-.063c.164-.059.25-.141.25-.4V42.952c0-.267-.085-.347-.25-.411v-.063h2.441a.113.113,0,0,0,.093-.04h.032l-.071.75H45.07c-.01-.134-.044-.416-.19-.416Zm2.346,2.053h.045a1.137,1.137,0,0,0,1.2.764c.445,0,.948-.194.948-.643,0-.385-.4-.5-.853-.62-.6-.156-1.26-.322-1.26-1,0-.638.683-.932,1.35-.932a1.646,1.646,0,0,1,.89.219c.023-.008.049-.012.119-.04h.043v.732h-.043c-.06-.539-.72-.619-1.019-.619-.43,0-.818.169-.818.54,0,.272.542.406.792.473.6.156,1.321.383,1.321,1.163s-.784,1.041-1.533,1.023A1.91,1.91,0,0,1,45.75,45.5Zm3.533-1.874c0-.267-.085-.347-.25-.411v-.063h1.78c.718,0,1.068.4,1.068.9s-.356.9-1.068.9H49.8v1.057c0,.256.085.338.253.4V45.8H49.029v-.063c.166-.059.25-.141.25-.4Zm.68-.187c-.092,0-.159.008-.159.16V44h.926a.62.62,0,0,0,0-1.232ZM55.3,44.188c0,1.138-.687,1.7-1.384,1.7A1.523,1.523,0,0,1,52.5,44.166V42.952c0-.263-.086-.343-.254-.411v-.063h1.05v.063a.345.345,0,0,0-.245.371v1.2c0,.972.476,1.462.971,1.462.47,0,.934-.458.934-1.375V42.952c0-.263-.084-.343-.245-.411v-.063h.847v.063c-.169.063-.255.143-.255.411Zm.758,1.611v-.063c.164-.059.254-.141.254-.4V42.952c0-.267-.09-.347-.254-.411v-.063h1.893c.449,0,1.029.138,1.029.825a.858.858,0,0,1-.306.671.892.892,0,0,1,.545.855,1.03,1.03,0,0,1-1.15.97Zm.776-3.026v1.1h1.063a.493.493,0,0,0,.541-.558c0-.478-.308-.545-.56-.545Zm0,2.641c0,.046.04.085.067.085h1.132a.6.6,0,0,0,.579-.669c0-.335-.172-.659-.523-.659H56.832Zm5.38.385H59.777v-.063a.332.332,0,0,0,.248-.361V42.952c0-.267-.079-.343-.248-.411v-.063H60.8v.063c-.16.063-.25.151-.25.411v2.405c0,.12.041.152.111.152h1.149c.2,0,.389-.18.5-.46h.044Zm1.577-3.321v.063c-.163.063-.251.151-.251.411v2.44a.3.3,0,0,0,.251.344V45.8H62.763v-.063a.31.31,0,0,0,.25-.344v-2.44c0-.267-.081-.343-.25-.411v-.063Zm-.572-.852a.3.3,0,1,1-.251.294.264.264,0,0,1,.251-.294m2.24.852v.063a.366.366,0,0,0-.256.411v1.335l1.318-1.463a.039.039,0,0,0,.013-.023c.108-.121.042-.241-.115-.259v-.063h.894v.063a1.571,1.571,0,0,0-.489.392l-.9,1,1.156,1.449a.973.973,0,0,0,.431.358V45.8h-.8l-1.161-1.464-.345.392v.648a.325.325,0,0,0,.256.361V45.8H64.428v-.063a.332.332,0,0,0,.254-.361V42.952c0-.267-.085-.343-.254-.411v-.063Zm4.761,2.67-.2-.455H68.557l-.3.65c-.1.228.1.345.237.393V45.8H67.46v-.063c.12-.041.29-.12.455-.473l1.175-2.552c-.019-.1-.215-.165-.269-.17v-.063h.753l1.277,2.815a.784.784,0,0,0,.45.442V45.8H70.058v-.063c.112-.043.332-.166.246-.388-.025-.067-.054-.128-.086-.2m-1.523-.755h1.189l-.585-1.33Zm2.794.432h.046a1.137,1.137,0,0,0,1.2.764c.446,0,.949-.194.949-.643,0-.385-.4-.5-.853-.62-.6-.156-1.262-.322-1.262-1,0-.638.682-.932,1.351-.932a1.656,1.656,0,0,1,.891.219c.022-.008.047-.012.119-.04h.045v.732h-.045c-.062-.539-.72-.619-1.019-.619-.428,0-.82.169-.82.54,0,.272.543.406.793.473.6.156,1.321.383,1.321,1.163s-.785,1.041-1.534,1.023a1.916,1.916,0,0,1-1.184-.389Zm4.306-2.347v.063c-.158.063-.25.151-.25.411v2.44a.307.307,0,0,0,.25.344V45.8H74.77v-.063a.309.309,0,0,0,.25-.344v-2.44c0-.267-.08-.343-.25-.411v-.063ZM9.435,42.4a2.616,2.616,0,0,0-1.093.26.194.194,0,0,0-.056-.033H8.239l.018.745H8.3a.994.994,0,0,1,1.054-.679,1.335,1.335,0,0,1,1.334,1.436c0,.024,0,.046,0,.069H7.99a1.627,1.627,0,0,0,0,.174v.1H8a1.5,1.5,0,0,0,.981,1.318l0,0a2.121,2.121,0,0,0,.494.067,1.7,1.7,0,0,0,1.81-1.727A1.723,1.723,0,0,0,9.435,42.4m.05,3.172a1.427,1.427,0,0,1-.412-.062,1.052,1.052,0,0,1-.622-1.032h2.214a1.173,1.173,0,0,1-1.18,1.093" transform="translate(0 -7.788)" fill="#7c6326"/>
    <path id="Path_258" data-name="Path 258" d="M5.635,49.932v1.394H6.853c.148,0,.207-.169.25-.406h.052l-.076,1.135H7.034c-.023-.173-.062-.38-.18-.38H5.635v1.378c0,.074.037.117.083.117H7.251c.29,0,.467-.316.53-.545h.056l-.174.888H4.7v-.076c.194-.069.293-.168.293-.47V50.143c0-.316-.1-.411-.293-.485v-.074H7.592a.128.128,0,0,0,.109-.047H7.74l-.085.886H7.608c-.011-.158-.051-.491-.224-.491Z" transform="translate(-0.88 -9.268)" fill="#7c6326"/>
    <path id="Path_259" data-name="Path 259" d="M11.915,53.68H9.5v-.063a.327.327,0,0,0,.246-.358v-2.4c0-.265-.079-.341-.246-.407v-.062h1.015v.062c-.159.063-.249.15-.249.407v2.386c0,.119.042.151.111.151h1.14c.2,0,.385-.178.493-.457h.043Z" transform="translate(-1.777 -9.427)" fill="#7c6326"/>
    <path id="Path_260" data-name="Path 260" d="M33.417,53.413v.072H32.225v-.072a.379.379,0,0,0,.294-.419V49.988H31.6c-.341,0-.469.25-.553.494h-.053l.079-.862h3.493l.081.862h-.056c-.085-.244-.211-.494-.553-.494h-.918v3.006a.382.382,0,0,0,.3.419m8.495-3.22v.062c-.164.067-.25.146-.25.408v2.4a.332.332,0,0,0,.25.358v.062H40.894v-.062a.333.333,0,0,0,.253-.358V51.96H39.194v1.106a.322.322,0,0,0,.251.358v.062H38.427v-.062a.328.328,0,0,0,.253-.358v-2.4c0-.267-.085-.341-.253-.408v-.062h1.019v.062c-.158.062-.251.15-.251.408v1h1.953v-1c0-.262-.087-.341-.253-.408v-.062Zm.542,2.328H42.5a1.127,1.127,0,0,0,1.195.757c.442,0,.938-.191.938-.638,0-.38-.4-.5-.845-.615-.593-.154-1.249-.318-1.249-.985,0-.635.678-.926,1.337-.926a1.636,1.636,0,0,1,.887.217c.023-.009.048-.014.113-.04h.048v.725h-.048c-.056-.535-.712-.615-1.008-.615-.427,0-.811.167-.811.535,0,.271.54.4.787.47.6.155,1.312.38,1.312,1.154s-.779,1.032-1.525,1.015a1.886,1.886,0,0,1-1.171-.386Zm4.272-2.328v.062c-.159.062-.249.15-.249.408v2.42a.3.3,0,0,0,.249.341v.062H45.71v-.062a.3.3,0,0,0,.246-.341v-2.42c0-.267-.079-.341-.246-.408v-.062Zm-.565-.846a.3.3,0,0,1,0,.594.27.27,0,0,1-.254-.3.262.262,0,0,1,.25-.293m3.618,4.138H47.36v-.062a.325.325,0,0,0,.248-.358v-2.4c0-.267-.08-.341-.248-.408v-.062h1.018v.062c-.162.062-.251.15-.251.408v2.385c0,.118.041.15.109.15h1.142c.2,0,.385-.176.492-.456h.046Zm5.694,0h-.434l-2.679-3.108v2.616a.391.391,0,0,0,.293.419v.072h-.989v-.072a.39.39,0,0,0,.3-.419V50.1a.411.411,0,0,0-.3-.4v-.073h.9l2.5,2.88V50.118a.394.394,0,0,0-.292-.426v-.073h.984v.073a.4.4,0,0,0-.288.426Zm3.292-.645-.2-.452H57.118l-.3.647c-.1.224.1.339.234.389v.062h-1.03v-.062c.12-.039.289-.119.454-.469l1.162-2.531c-.016-.1-.211-.164-.263-.168v-.062h.743l1.269,2.792a.771.771,0,0,0,.445.438v.062H58.605v-.062c.111-.044.331-.164.242-.385-.024-.065-.054-.128-.082-.2m-1.51-.748h1.177l-.582-1.319Zm3.082-1.975h.041c.031.076.119.076.176.076h2.367V50.5l-2.112,2.7h1.655c.2,0,.38-.167.5-.456H63l-.13.744H60.122v-.279l2.107-2.7H60.64c-.137,0-.272.209-.325.407h-.043Zm4.2.076v.062c-.164.062-.25.15-.25.408v2.42a.3.3,0,0,0,.25.341v.062H63.52v-.062a.307.307,0,0,0,.246-.341v-2.42c0-.267-.082-.341-.246-.408v-.062Zm-.567-.846a.3.3,0,1,1-.251.293.263.263,0,0,1,.251-.293m1.45,1.316c0-.267-.089-.346-.252-.408v-.062h1.767c.713,0,1.058.393,1.058.894s-.358.893-1.066.893l.921,1.1a1.194,1.194,0,0,0,.425.345v.062H67.5l-1.427-1.712V51.7h.779a.557.557,0,0,0,.545-.61.547.547,0,0,0-.545-.6h-.763c-.092,0-.157,0-.157.154v2.39c0,.252.082.337.25.393v.062H65.168v-.062c.163-.057.252-.141.252-.393Zm5.787,2.822H68.791v-.062a.325.325,0,0,0,.247-.358v-2.4c0-.267-.081-.341-.247-.408v-.062h1.015v.062c-.159.062-.251.15-.251.408v2.385c0,.118.042.15.111.15h1.14c.2,0,.385-.176.493-.456h.046ZM72.7,50.193v.062c-.159.062-.25.15-.25.408v2.42a.3.3,0,0,0,.25.341v.062H71.685v-.062a.305.305,0,0,0,.248-.341v-2.42c0-.267-.08-.341-.248-.408v-.062Zm-.567-.846a.274.274,0,0,1,.257.3.257.257,0,1,1-.508,0,.263.263,0,0,1,.251-.293M74.988,52v1.11a.318.318,0,0,0,.251.314v.062H74.215v-.062a.317.317,0,0,0,.256-.31v-.983l-1.118-1.558c-.1-.137-.191-.275-.372-.319v-.062H74.06v.062c-.1.031-.233.093-.116.257l.846,1.19.917-1.185c.119-.156,0-.235-.125-.262v-.062h.892v.062a.379.379,0,0,0-.267.173Zm2.783-1.806v.062c-.16.062-.25.15-.25.408v2.42a.3.3,0,0,0,.25.341v.062H76.753v-.062A.306.306,0,0,0,77,53.083v-2.42c0-.267-.08-.341-.248-.408v-.062Zm-.568-.846a.272.272,0,0,1,.254.3.256.256,0,1,1-.506,0,.263.263,0,0,1,.251-.293m-40.981.736a2.6,2.6,0,0,0-1.083.255.215.215,0,0,0-.056-.029h-.045l.017.738H35.1a.977.977,0,0,1,1.041-.673A1.321,1.321,0,0,1,37.465,51.8v.069H34.792a.951.951,0,0,0,0,.172v.1h0a1.493,1.493,0,0,0,.975,1.308l0,0a2.07,2.07,0,0,0,.487.067,1.685,1.685,0,0,0,1.8-1.713,1.708,1.708,0,0,0-1.836-1.726m.048,3.146a1.307,1.307,0,0,1-.4-.063,1.035,1.035,0,0,1-.619-1.023H37.44a1.162,1.162,0,0,1-1.171,1.085" transform="translate(-5.799 -9.232)" fill="#7c6326"/>
    <path id="Path_261" data-name="Path 261" d="M21.273,50.805c-.1-.236-.166-.276-.327-.316a.757.757,0,0,0-.171-.015c-.04,0-.05-.02-.05-.045s.046-.041.111-.041c.236,0,.487.011.642.011.111,0,.341-.011.563-.011.055,0,.106.011.106.041s-.03.045-.071.045a.322.322,0,0,0-.17.03.094.094,0,0,0-.046.085,1.206,1.206,0,0,0,.1.322l.743,1.914h.015c.191-.442.759-1.818.864-2.1a.579.579,0,0,0,.041-.155c0-.046-.02-.06-.061-.076a.654.654,0,0,0-.176-.02c-.041,0-.076-.015-.076-.045s.041-.041.127-.041c.22,0,.416.011.471.011.075,0,.281-.011.416-.011.055,0,.091.011.091.041s-.025.045-.071.045a.359.359,0,0,0-.216.05c-.055.041-.115.106-.231.377-.176.4-.291.632-.532,1.154-.281.623-.487,1.09-.587,1.306-.111.245-.151.311-.211.311s-.1-.055-.18-.256Z" transform="translate(-3.878 -9.427)" fill="#7c6326"/>
    <path id="Path_262" data-name="Path 262" d="M26.706,50.251a2.593,2.593,0,0,0-1.083.255.26.26,0,0,0-.056-.028h-.045l.016.737h.048a.98.98,0,0,1,1.041-.673,1.321,1.321,0,0,1,1.321,1.426v.07H25.277a.94.94,0,0,0,0,.171v.1h0a1.494,1.494,0,0,0,.975,1.308l0,0a2.019,2.019,0,0,0,.486.068,1.686,1.686,0,0,0,1.795-1.713,1.708,1.708,0,0,0-1.835-1.727m.048,3.146a1.332,1.332,0,0,1-.4-.061,1.036,1.036,0,0,1-.618-1.023h2.193A1.162,1.162,0,0,1,26.754,53.4" transform="translate(-4.729 -9.402)" fill="#7c6326"/>
    <path id="Path_263" data-name="Path 263" d="M17.755,53.055,17.2,50.911a.312.312,0,0,1,.232-.367l.01,0v-.076h-.9l-.993,2.63-1.028-2.619,0-.011h-.9v.075l.01,0c.144.06.283.152.229.38l-.559,2.2c-.1.391-.225.443-.336.488l-.018.007v.076h.789v-.077l-.012,0a.211.211,0,0,1-.137-.093A.428.428,0,0,1,13.6,53.2l.617-2.254,1.049,2.737,0,.011h.385l1.056-2.744.607,2.246a.428.428,0,0,1,.011.324.218.218,0,0,1-.149.093l-.013,0v.077h.962v-.076l-.015-.007c-.11-.045-.234-.1-.354-.558" transform="translate(-2.421 -9.441)" fill="#7c6326"/>
  </g>
</svg>
