<svg width="982" height="338" viewBox="0 0 982 338" fill="none" xmlns="http://www.w3.org/2000/svg">
<path fill-rule="evenodd" clip-rule="evenodd" d="M483.258 59.8057L587.049 140.336C601.532 124.628 621.047 114.474 642.222 111.627C663.397 108.781 684.901 113.421 703.018 124.745C721.135 136.07 734.727 153.367 741.445 173.649C748.163 193.931 747.585 215.922 739.811 235.823C732.036 255.724 717.554 272.283 698.867 282.64C680.18 292.997 658.461 296.501 637.465 292.545C616.469 288.59 597.515 277.424 583.877 260.978C570.239 244.531 562.775 223.837 562.775 202.472C562.774 199.158 562.95 195.848 563.303 192.554L508.851 262.716L394.607 174.071L483.258 59.8057ZM540.931 151.296C537.552 148.49 534.23 145.739 530.962 143.043C517.22 131.711 506.569 120.45 487.309 127.431C484.42 128.484 481.692 129.933 479.201 131.737C475.107 134.674 471.784 138.556 469.513 143.054C467.243 147.551 466.093 152.531 466.161 157.569C466.158 164.572 468.445 171.385 472.673 176.969C476.901 182.553 482.838 186.602 489.58 188.5C496.322 190.397 503.499 190.039 510.019 187.48C516.538 184.92 522.043 180.3 525.693 174.323C528.814 169.295 530.445 163.486 530.396 157.569C530.404 156.11 530.339 154.652 530.201 153.2C549.335 169 569.007 186.595 587.719 203.063C597.454 211.628 606.488 219.695 614.335 226.796C622.282 233.975 629.374 240.488 636.053 246.66C641.545 251.74 648.404 257.824 655.354 264.327L655.369 264.305C656.133 264.88 657.047 265.22 658.001 265.284C659.831 265.446 661.669 265.496 663.506 265.435C664.985 265.397 666.968 263.175 667.698 261.9C668.465 260.036 669.001 258.085 669.294 256.09C673.336 236.972 679.366 220.029 682.536 199.982C683.225 196.138 683.564 192.241 683.549 188.336C683.547 185.448 682.94 182.593 681.768 179.954C680.204 176.944 678.158 174.211 675.712 171.862C674.837 170.917 673.981 170.008 673.301 169.189C672.221 167.91 671.313 166.496 670.6 164.981C670.008 163.729 669.628 162.386 669.477 161.009C668.768 153.958 676.162 147.962 682.293 143.411C682.562 143.211 682.762 142.932 682.863 142.613C682.964 142.293 682.963 141.95 682.858 141.632C682.754 141.314 682.552 141.037 682.281 140.84C682.01 140.642 681.684 140.536 681.349 140.534L631.423 140.578C631.093 140.578 630.771 140.679 630.502 140.868C630.232 141.057 630.027 141.325 629.916 141.635C629.804 141.946 629.791 142.283 629.878 142.6C629.965 142.918 630.149 143.201 630.403 143.411C636.169 148.205 644.806 155.312 644.312 160.987C644.184 162.188 643.853 163.359 643.333 164.449C642.631 165.93 641.761 167.325 640.74 168.607C630.749 181.364 622.071 177.952 635.039 196.96C637.749 200.929 640.95 204.829 643.588 208.436C646.01 211.556 648.034 214.965 649.616 218.584C650.912 222.035 651.579 225.69 651.586 229.377C651.753 233.717 651.586 239.207 651.819 243.893C651.926 245.974 652.108 247.9 652.354 249.644C649.147 246.66 645.659 243.415 641.583 239.647C634.794 233.352 627.652 226.805 619.834 219.733C611.222 211.939 602.113 203.803 593.167 195.928C575.774 180.615 558.828 166.161 540.937 151.302M643.088 175.069C643.459 176.127 643.834 177.156 644.224 178.135C645.332 180.939 646.522 183.338 648.092 186.416C649.663 189.494 651.605 193.274 653.774 197.036C655.942 200.797 658.322 204.568 660.764 208.096C663.207 211.625 665.69 214.87 668.082 217.935C669.401 219.629 670.688 221.259 671.8 222.805C673.808 213.778 675.577 205.383 676.587 199.056C677.218 195.574 677.534 192.042 677.531 188.503C677.542 186.427 677.121 184.372 676.294 182.469C674.98 180.065 673.304 177.878 671.324 175.985C670.421 175.041 669.536 174.096 668.652 173.02C667.24 171.336 666.054 169.475 665.124 167.483C664.256 165.625 663.703 163.634 663.487 161.594C663.273 159.485 663.47 157.355 664.066 155.321C664.668 153.275 665.649 151.361 666.959 149.678C667.821 148.591 668.776 147.582 669.813 146.662C667.61 146.691 665.429 146.719 663.263 146.728C658.857 146.75 654.642 146.728 650.295 146.728H642.603C643.747 147.606 644.821 148.572 645.813 149.618C647.351 151.24 648.566 153.141 649.392 155.217C650.186 157.215 650.509 159.369 650.336 161.512C650.142 163.404 649.627 165.249 648.813 166.967C647.917 168.874 646.802 170.67 645.489 172.318C644.739 173.275 643.94 174.193 643.097 175.069" fill="#F26B32"/>
<path fill-rule="evenodd" clip-rule="evenodd" d="M524.862 90.7078C570.077 104.653 616.617 113.871 663.735 118.214C703.181 121.607 742.91 119.291 781.695 111.34C811.366 104.794 840.12 94.6245 867.309 81.0606C883.991 73.0028 899.414 64.643 914.418 56.195L892.445 18.1348C880.884 25.1129 868.958 32.0281 856.248 38.789C829.615 53.4119 801.284 64.703 771.894 72.408C733.451 81.8731 693.843 85.7446 654.295 83.9028C607.044 81.4097 560.178 74.026 514.449 61.87C468.13 49.9093 424.562 34.2471 379.656 26.3562C334.581 18.4829 288.496 18.3189 243.367 25.8714C196.463 33.4458 151.519 50.2198 111.122 75.2282C73.849 98.2368 37.2304 129.813 0.703125 162.538C2.59166 165.778 4.46025 169.001 6.30891 172.207C44.5107 140.559 82.7535 110.021 121.33 88.2402C162.678 64.8302 208.247 49.8297 255.415 44.1021C300.804 38.3261 346.843 40.2962 391.572 49.9282C436.138 59.5723 479.055 76.9216 524.874 90.7047" fill="#8B8A6D"/>
<path fill-rule="evenodd" clip-rule="evenodd" d="M671.683 288.547C621.776 279.734 575.806 258.831 526.606 236.927C477.407 215.023 424.972 192.109 370.503 178.927C318.761 166.505 265.397 162.225 212.336 166.242C172.758 169.682 133.853 178.625 96.7453 192.814C72.5092 201.81 52.7709 210.83 33.9863 219.864C36.6964 224.529 37.5588 226.159 40.209 230.707C151.318 183.226 254.013 176.041 370.979 208.888C424.94 224.044 476.491 248.862 524.856 272.545C573.221 296.227 618.405 318.813 667.953 329.436C717.502 340.059 771.423 338.747 815.696 330.938C852.309 324.164 887.869 312.589 921.454 296.513C946.071 285.22 964.132 275.591 981.654 266.101C974.213 253.211 966.77 240.323 959.325 227.437C948.822 233.364 937.336 239.577 923.815 246.388C890.837 263.679 855.722 276.543 819.379 284.647C775.414 294.071 721.581 297.354 671.68 288.544" fill="#8B8A6D"/>
<path fill-rule="evenodd" clip-rule="evenodd" d="M568.198 185.84C555.577 174.735 542.779 163.577 530.201 153.184C530.308 154.018 530.368 155.371 530.403 157.565C530.444 163.482 528.807 169.289 525.681 174.313C522.031 180.29 516.527 184.91 510.008 187.469C503.489 190.029 496.312 190.387 489.571 188.491C482.829 186.594 476.892 182.546 472.663 176.963C468.435 171.38 466.147 164.569 466.149 157.565C466.082 152.527 467.233 147.547 469.502 143.049C471.771 138.55 475.092 134.665 479.183 131.724C481.675 129.927 484.403 128.483 487.291 127.434C506.554 120.443 517.192 131.702 530.947 143.046C534.214 145.744 537.539 148.495 540.922 151.298C551.982 160.492 562.696 169.532 573.376 178.717L595.557 148.277L587.036 140.339L521.936 89.8205L483.259 59.8086L472.494 73.683L394.602 174.068L404.044 181.282L394.809 173.807L394.602 174.068L419.338 193.268L508.864 262.725L528.294 237.683L563.304 192.56L568.198 185.84Z" fill="#DC0026"/>
<path fill-rule="evenodd" clip-rule="evenodd" d="M497.585 139.245C501.229 139.246 504.791 140.327 507.821 142.352C510.85 144.377 513.212 147.254 514.606 150.621C516 153.988 516.365 157.692 515.654 161.266C514.943 164.84 513.188 168.123 510.611 170.7C508.034 173.277 504.751 175.031 501.177 175.742C497.604 176.453 493.899 176.089 490.532 174.695C487.165 173.3 484.288 170.939 482.263 167.91C480.238 164.88 479.157 161.318 479.156 157.674C479.156 155.254 479.633 152.857 480.559 150.622C481.485 148.386 482.843 146.354 484.554 144.643C486.265 142.932 488.297 141.574 490.533 140.648C492.769 139.722 495.165 139.245 497.585 139.245Z" fill="#DC0026"/>
<path fill-rule="evenodd" clip-rule="evenodd" d="M226.868 134.522C229.04 133.036 230.831 131.289 233.229 129.863L234.488 129.023C237.64 126.821 240.942 124.841 244.368 123.096L250.134 119.948L250.553 119.76L256.977 116.612C262.487 113.629 268.321 111.288 274.364 109.634C279.399 108.054 284.782 107.959 289.869 109.36C291.906 110.027 293.828 111.003 295.569 112.253L296.221 112.744C301.001 117.084 304.463 122.681 306.211 128.897C314.31 152.233 306.957 181.659 299.601 202.965C297.168 210.028 292.009 222.408 290.473 228.775C288.937 235.143 293.583 237.475 298.871 237.651C304.344 237.578 309.782 236.759 315.034 235.218C314.463 228.8 315.114 222.332 316.954 216.156L322.591 202.096L328.153 192.223C329.962 189.308 331.948 186.507 334.099 183.834C334.599 183.239 334.684 183.06 335.077 182.522L335.194 182.355L335.666 181.71L335.905 181.395L339.682 176.699L339.814 176.548L344.973 170.674C345.03 170.611 345.19 170.441 345.247 170.36C348.741 166.535 350.013 166.101 356.541 172.33C359.347 175.085 362.009 177.984 364.516 181.014L386.924 208.42C392.734 215.738 404.094 228.879 412.419 232.741C416.326 234.449 420.605 235.131 424.85 234.722C429.095 234.313 433.165 232.826 436.674 230.402L437.955 229.31C436.388 227.447 434.608 225.775 432.651 224.328L422.265 214.255L412.529 203.179C393.644 180.577 377.33 150.65 380.254 120.084C380.795 114.511 381.91 109.01 383.581 103.666C384.98 98.7108 387.022 93.9597 389.653 89.5337L389.76 89.3606C390.984 87.4186 392.165 85.1145 393.594 83.2827L398.063 78.1238L398.202 77.979L411.582 66.8304C411.638 66.7958 411.704 66.7454 411.755 66.714L412.768 65.9743C417.594 62.8281 422.583 59.9389 427.713 57.3185L432.554 54.3787C432.771 54.2497 433.017 54.1017 433.25 53.9444L438.474 49.7046C438.66 49.5237 438.857 49.3545 439.063 49.1978L440.952 47.0984C442.598 45.1089 443.799 42.7895 444.474 40.2966C444.888 38.9058 445.008 37.4439 444.824 36.0043C444.641 34.5647 444.159 33.1793 443.41 31.9367C441.988 29.8278 439.949 28.2104 437.571 27.3066C437.194 27.7026 436.79 28.0728 436.362 28.4146C434.348 30.13 431.956 32.6732 429.696 34.2974C428.623 35.0716 428.021 35.7893 426.898 36.5951C414.914 45.5301 401.946 53.064 388.249 59.0497C378.321 63.2925 368.102 66.8194 357.671 69.6034C346.217 72.6471 335.074 74.4286 323.047 76.528C301.401 80.6174 280.288 87.1505 260.115 96.0019C255.674 97.8653 250.836 100.349 246.518 102.675C239.099 106.675 227.154 112.826 223.783 120.263C221.407 125.501 222.776 132.447 226.861 134.512" fill="#008979"/>
<path fill-rule="evenodd" clip-rule="evenodd" d="M324.726 0.284003C319.869 0.94626 315.227 2.70974 311.155 5.4398C307.083 8.16986 303.689 11.7943 301.232 16.0363C298.775 20.2784 297.319 25.0258 296.977 29.9162C296.635 34.8066 297.414 39.7105 299.256 44.2535C301.099 48.7966 303.955 52.8586 307.606 56.1294C311.258 59.4002 315.609 61.7933 320.326 63.126C325.044 64.4586 330.004 64.6956 334.827 63.8188C339.651 62.9419 344.21 60.9745 348.157 58.0667C348.626 57.689 348.818 57.5379 349.274 57.2137C353.613 53.7199 356.973 49.1624 359.027 43.9847C361.082 38.8071 361.761 33.1857 360.999 27.6677C360.639 25.4391 360.096 23.2441 359.375 21.105C356.814 14.2213 351.991 8.41177 345.695 4.62877C339.4 0.845763 332.006 -0.686206 324.726 0.284003Z" fill="#008979"/>
</svg>
